<?xml version="1.0"?>
<!-- Generated by SVGo -->
<svg width="297.651mm" height="202.401mm"
     viewBox="0.000 0.000 297.651 202.401"
     xmlns="http://www.w3.org/2000/svg" 
     xmlns:xlink="http://www.w3.org/1999/xlink">
<polygon points="45.824,168.600 45.824,171.900 60.025,171.900 60.025,168.600" style="fill:none;stroke-width:0.050000mm;stroke:black"/>
<polygon points="83.925,168.600 83.925,171.900 98.125,171.900 98.125,168.600" style="fill:none;stroke-width:0.050000mm;stroke:black"/>
<polygon points="102.975,168.600 102.975,171.900 117.175,171.900 117.175,168.600" style="fill:none;stroke-width:0.050000mm;stroke:black"/>
<polygon points="179.175,168.600 179.175,171.900 193.375,171.900 193.375,168.600" style="fill:none;stroke-width:0.050000mm;stroke:black"/>
<polygon points="198.225,168.600 198.225,171.900 212.425,171.900 212.425,168.600" style="fill:none;stroke-width:0.050000mm;stroke:black"/>
<polygon points="236.325,168.600 236.325,171.900 250.525,171.900 250.525,168.600" style="fill:none;stroke-width:0.050000mm;stroke:black"/>
<polygon points="47.574,150.550 47.574,151.350 46.574,151.350 46.574,165.350 47.574,165.350 47.574,166.150 50.675,166.150 50.675,165.350 56.474,165.350 56.474,166.150 59.574,166.150 59.574,165.350 60.574,165.350 60.574,151.350 59.574,151.350 59.574,150.550 56.474,150.550 56.474,151.350 50.675,151.350 50.675,150.550" style="fill:none;stroke-width:0.050000mm;stroke:black"/>
<polygon points="85.675,150.550 85.675,151.350 84.675,151.350 84.675,165.350 85.675,165.350 85.675,166.150 88.774,166.150 88.774,165.350 94.575,165.350 94.575,166.150 97.675,166.150 97.675,165.350 98.675,165.350 98.675,151.350 97.675,151.350 97.675,150.550 94.575,150.550 94.575,151.350 88.774,151.350 88.774,150.550" style="fill:none;stroke-width:0.050000mm;stroke:black"/>
<polygon points="104.725,150.550 104.725,151.350 103.725,151.350 103.725,165.350 104.725,165.350 104.725,166.150 107.824,166.150 107.824,165.350 113.625,165.350 113.625,166.150 116.725,166.150 116.725,165.350 117.725,165.350 117.725,151.350 116.725,151.350 116.725,150.550 113.625,150.550 113.625,151.350 107.824,151.350 107.824,150.550" style="fill:none;stroke-width:0.050000mm;stroke:black"/>
<polygon points="180.925,150.550 180.925,151.350 179.925,151.350 179.925,165.350 180.925,165.350 180.925,166.150 184.025,166.150 184.025,165.350 189.825,165.350 189.825,166.150 192.925,166.150 192.925,165.350 193.925,165.350 193.925,151.350 192.925,151.350 192.925,150.550 189.825,150.550 189.825,151.350 184.025,151.350 184.025,150.550" style="fill:none;stroke-width:0.050000mm;stroke:black"/>
<polygon points="199.975,150.550 199.975,151.350 198.975,151.350 198.975,165.350 199.975,165.350 199.975,166.150 203.075,166.150 203.075,165.350 208.875,165.350 208.875,166.150 211.975,166.150 211.975,165.350 212.975,165.350 212.975,151.350 211.975,151.350 211.975,150.550 208.875,150.550 208.875,151.350 203.075,151.350 203.075,150.550" style="fill:none;stroke-width:0.050000mm;stroke:black"/>
<polygon points="238.075,150.550 238.075,151.350 237.075,151.350 237.075,165.350 238.075,165.350 238.075,166.150 241.175,166.150 241.175,165.350 246.975,165.350 246.975,166.150 250.075,166.150 250.075,165.350 251.075,165.350 251.075,151.350 250.075,151.350 250.075,150.550 246.975,150.550 246.975,151.350 241.175,151.350 241.175,150.550" style="fill:none;stroke-width:0.050000mm;stroke:black"/>
<polygon points="45.824,144.800 45.824,148.100 60.024,148.100 60.024,144.800" style="fill:none;stroke-width:0.050000mm;stroke:black"/>
<polygon points="83.925,144.800 83.925,148.100 98.125,148.100 98.125,144.800" style="fill:none;stroke-width:0.050000mm;stroke:black"/>
<polygon points="102.975,144.800 102.975,148.100 117.175,148.100 117.175,144.800" style="fill:none;stroke-width:0.050000mm;stroke:black"/>
<polygon points="179.175,144.800 179.175,148.100 193.375,148.100 193.375,144.800" style="fill:none;stroke-width:0.050000mm;stroke:black"/>
<polygon points="198.225,144.800 198.225,148.100 212.425,148.100 212.425,144.800" style="fill:none;stroke-width:0.050000mm;stroke:black"/>
<polygon points="236.325,144.800 236.325,148.100 250.525,148.100 250.525,144.800" style="fill:none;stroke-width:0.050000mm;stroke:black"/>
<polygon points="24.525,24.525 24.525,115.962 120.725,115.962 120.725,77.862 139.775,77.862 139.775,24.525" style="fill:none;stroke-width:0.050000mm;stroke:black"/>
<polygon points="157.825,24.525 157.825,77.862 176.925,77.862 176.925,115.962 273.525,115.962 273.525,24.525" style="fill:none;stroke-width:0.050000mm;stroke:black"/>
<polygon points="60.574,99.962 61.374,99.962 61.374,103.062 60.574,103.062 60.574,108.862 61.374,108.862 61.374,111.962 60.574,111.962 60.574,112.962 46.574,112.962 46.574,111.962 45.775,111.962 45.775,108.862 46.574,108.862 46.574,103.062 45.775,103.062 45.775,99.962 46.574,99.962 46.574,98.962 60.574,98.962" style="fill:none;stroke-width:0.050000mm;stroke:black"/>
<polygon points="251.075,99.962 251.875,99.962 251.875,103.062 251.075,103.062 251.075,108.862 251.875,108.862 251.875,111.962 251.075,111.962 251.075,112.962 237.075,112.962 237.075,111.962 236.275,111.962 236.275,108.862 237.075,108.862 237.075,103.062 236.275,103.062 236.275,99.962 237.075,99.962 237.075,98.962 251.075,98.962" style="fill:none;stroke-width:0.050000mm;stroke:black"/>
<polygon points="111.923,107.954 112.021,107.965 112.117,107.985 112.211,108.011 112.303,108.045 112.392,108.086 112.478,108.134 112.560,108.189 112.637,108.249 112.709,108.316 112.776,108.388 112.836,108.465 112.891,108.547 112.939,108.633 112.980,108.722 113.014,108.814 113.040,108.908 113.060,109.004 113.071,109.102 113.075,109.200 113.071,109.298 113.060,109.396 113.040,109.492 113.014,109.586 112.980,109.678 112.939,109.767 112.891,109.853 112.836,109.935 112.776,110.012 112.709,110.084 112.637,110.151 112.560,110.211 112.478,110.266 112.392,110.314 112.303,110.355 112.211,110.389 112.117,110.415 112.021,110.435 111.923,110.446 111.825,110.450 111.727,110.446 111.629,110.435 111.533,110.415 111.439,110.389 111.347,110.355 111.258,110.314 111.172,110.266 111.090,110.211 111.013,110.151 110.941,110.084 110.874,110.012 110.814,109.935 110.759,109.853 110.711,109.767 110.670,109.678 110.636,109.586 110.610,109.492 110.590,109.396 110.579,109.298 110.575,109.200 110.579,109.102 110.590,109.004 110.610,108.908 110.636,108.814 110.670,108.722 110.711,108.633 110.759,108.547 110.814,108.465 110.874,108.388 110.941,108.316 111.013,108.249 111.090,108.189 111.172,108.134 111.258,108.086 111.347,108.045 111.439,108.011 111.533,107.985 111.629,107.965 111.727,107.954 111.825,107.950" style="fill:none;stroke-width:0.050000mm;stroke:black"/>
<polygon points="33.923,107.954 34.021,107.965 34.117,107.985 34.211,108.011 34.303,108.045 34.392,108.086 34.478,108.134 34.560,108.189 34.637,108.249 34.709,108.316 34.776,108.388 34.836,108.465 34.891,108.547 34.939,108.633 34.980,108.722 35.014,108.814 35.040,108.908 35.060,109.004 35.071,109.102 35.075,109.200 35.071,109.298 35.060,109.396 35.040,109.492 35.014,109.586 34.980,109.678 34.939,109.767 34.891,109.853 34.836,109.935 34.776,110.012 34.709,110.084 34.637,110.151 34.560,110.211 34.478,110.266 34.392,110.314 34.303,110.355 34.211,110.389 34.117,110.415 34.021,110.435 33.923,110.446 33.825,110.450 33.727,110.446 33.629,110.435 33.533,110.415 33.439,110.389 33.347,110.355 33.258,110.314 33.172,110.266 33.090,110.211 33.013,110.151 32.941,110.084 32.874,110.012 32.814,109.935 32.759,109.853 32.711,109.767 32.670,109.678 32.636,109.586 32.610,109.492 32.590,109.396 32.579,109.298 32.575,109.200 32.579,109.102 32.590,109.004 32.610,108.908 32.636,108.814 32.670,108.722 32.711,108.633 32.759,108.547 32.814,108.465 32.874,108.388 32.941,108.316 33.013,108.249 33.090,108.189 33.172,108.134 33.258,108.086 33.347,108.045 33.439,108.011 33.533,107.985 33.629,107.965 33.727,107.954 33.825,107.950" style="fill:none;stroke-width:0.050000mm;stroke:black"/>
<polygon points="185.923,107.954 186.021,107.965 186.117,107.985 186.211,108.011 186.303,108.045 186.392,108.086 186.478,108.134 186.560,108.189 186.637,108.249 186.709,108.316 186.776,108.388 186.836,108.465 186.891,108.547 186.939,108.633 186.980,108.722 187.014,108.814 187.040,108.908 187.060,109.004 187.071,109.102 187.075,109.200 187.071,109.298 187.060,109.396 187.040,109.492 187.014,109.586 186.980,109.678 186.939,109.767 186.891,109.853 186.836,109.935 186.776,110.012 186.709,110.084 186.637,110.151 186.560,110.211 186.478,110.266 186.392,110.314 186.303,110.355 186.211,110.389 186.117,110.415 186.021,110.435 185.923,110.446 185.825,110.450 185.727,110.446 185.629,110.435 185.533,110.415 185.439,110.389 185.347,110.355 185.258,110.314 185.172,110.266 185.090,110.211 185.013,110.151 184.941,110.084 184.874,110.012 184.814,109.935 184.759,109.853 184.711,109.767 184.670,109.678 184.636,109.586 184.610,109.492 184.590,109.396 184.579,109.298 184.575,109.200 184.579,109.102 184.590,109.004 184.610,108.908 184.636,108.814 184.670,108.722 184.711,108.633 184.759,108.547 184.814,108.465 184.874,108.388 184.941,108.316 185.013,108.249 185.090,108.189 185.172,108.134 185.258,108.086 185.347,108.045 185.439,108.011 185.533,107.985 185.629,107.965 185.727,107.954 185.825,107.950" style="fill:none;stroke-width:0.050000mm;stroke:black"/>
<polygon points="263.923,107.954 264.021,107.965 264.117,107.985 264.211,108.011 264.303,108.045 264.392,108.086 264.478,108.134 264.560,108.189 264.637,108.249 264.709,108.316 264.776,108.388 264.836,108.465 264.891,108.547 264.939,108.633 264.980,108.722 265.014,108.814 265.040,108.908 265.060,109.004 265.071,109.102 265.075,109.200 265.071,109.298 265.060,109.396 265.040,109.492 265.014,109.586 264.980,109.678 264.939,109.767 264.891,109.853 264.836,109.935 264.776,110.012 264.709,110.084 264.637,110.151 264.560,110.211 264.478,110.266 264.392,110.314 264.303,110.355 264.211,110.389 264.117,110.415 264.021,110.435 263.923,110.446 263.825,110.450 263.727,110.446 263.629,110.435 263.533,110.415 263.439,110.389 263.347,110.355 263.258,110.314 263.172,110.266 263.090,110.211 263.013,110.151 262.941,110.084 262.874,110.012 262.814,109.935 262.759,109.853 262.711,109.767 262.670,109.678 262.636,109.586 262.610,109.492 262.590,109.396 262.579,109.298 262.575,109.200 262.579,109.102 262.590,109.004 262.610,108.908 262.636,108.814 262.670,108.722 262.711,108.633 262.759,108.547 262.814,108.465 262.874,108.388 262.941,108.316 263.013,108.249 263.090,108.189 263.172,108.134 263.258,108.086 263.347,108.045 263.439,108.011 263.533,107.985 263.629,107.965 263.727,107.954 263.825,107.950" style="fill:none;stroke-width:0.050000mm;stroke:black"/>
<polygon points="79.625,90.437 80.425,90.437 80.425,93.537 79.625,93.537 79.625,99.337 80.425,99.337 80.425,102.437 79.625,102.437 79.625,103.437 65.625,103.437 65.625,102.437 64.825,102.437 64.825,99.337 65.625,99.337 65.625,93.537 64.825,93.537 64.825,90.437 65.625,90.437 65.625,89.437 79.625,89.437" style="fill:none;stroke-width:0.050000mm;stroke:black"/>
<polygon points="117.725,90.437 118.524,90.437 118.524,93.537 117.725,93.537 117.725,99.337 118.524,99.337 118.524,102.437 117.725,102.437 117.725,103.437 103.725,103.437 103.725,102.437 102.925,102.437 102.925,99.337 103.725,99.337 103.725,93.537 102.925,93.537 102.925,90.437 103.725,90.437 103.725,89.437 117.725,89.437" style="fill:none;stroke-width:0.050000mm;stroke:black"/>
<polygon points="193.925,90.437 194.725,90.437 194.725,93.537 193.925,93.537 193.925,99.337 194.725,99.337 194.725,102.437 193.925,102.437 193.925,103.437 179.925,103.437 179.925,102.437 179.125,102.437 179.125,99.337 179.925,99.337 179.925,93.537 179.125,93.537 179.125,90.437 179.925,90.437 179.925,89.437 193.925,89.437" style="fill:none;stroke-width:0.050000mm;stroke:black"/>
<polygon points="232.025,90.437 232.825,90.437 232.825,93.537 232.025,93.537 232.025,99.337 232.825,99.337 232.825,102.437 232.025,102.437 232.025,103.437 218.025,103.437 218.025,102.437 217.225,102.437 217.225,99.337 218.025,99.337 218.025,93.537 217.225,93.537 217.225,90.437 218.025,90.437 218.025,89.437 232.025,89.437" style="fill:none;stroke-width:0.050000mm;stroke:black"/>
<polygon points="98.675,85.675 99.475,85.675 99.475,88.775 98.675,88.775 98.675,94.575 99.475,94.575 99.475,97.675 98.675,97.675 98.675,98.675 84.675,98.675 84.675,97.675 83.875,97.675 83.875,94.575 84.675,94.575 84.675,88.775 83.875,88.775 83.875,85.675 84.675,85.675 84.675,84.675 98.675,84.675" style="fill:none;stroke-width:0.050000mm;stroke:black"/>
<polygon points="212.975,85.675 213.775,85.675 213.775,88.775 212.975,88.775 212.975,94.575 213.775,94.575 213.775,97.675 212.975,97.675 212.975,98.675 198.975,98.675 198.975,97.675 198.175,97.675 198.175,94.575 198.975,94.575 198.975,88.775 198.175,88.775 198.175,85.675 198.975,85.675 198.975,84.675 212.975,84.675" style="fill:none;stroke-width:0.050000mm;stroke:black"/>
<polygon points="60.574,80.912 61.374,80.912 61.374,84.012 60.574,84.012 60.574,89.812 61.374,89.812 61.374,92.912 60.574,92.912 60.574,93.912 46.574,93.912 46.574,92.912 45.775,92.912 45.775,89.812 46.574,89.812 46.574,84.012 45.775,84.012 45.775,80.912 46.574,80.912 46.574,79.912 60.574,79.912" style="fill:none;stroke-width:0.050000mm;stroke:black"/>
<polygon points="251.075,80.912 251.875,80.912 251.875,84.012 251.075,84.012 251.075,89.812 251.875,89.812 251.875,92.912 251.075,92.912 251.075,93.912 237.075,93.912 237.075,92.912 236.275,92.912 236.275,89.812 237.075,89.812 237.075,84.012 236.275,84.012 236.275,80.912 237.075,80.912 237.075,79.912 251.075,79.912" style="fill:none;stroke-width:0.050000mm;stroke:black"/>
<polygon points="79.625,71.387 80.425,71.387 80.425,74.487 79.625,74.487 79.625,80.287 80.425,80.287 80.425,83.387 79.625,83.387 79.625,84.387 65.625,84.387 65.625,83.387 64.825,83.387 64.825,80.287 65.625,80.287 65.625,74.487 64.825,74.487 64.825,71.387 65.625,71.387 65.625,70.387 79.625,70.387" style="fill:none;stroke-width:0.050000mm;stroke:black"/>
<polygon points="117.725,71.387 118.524,71.387 118.524,74.487 117.725,74.487 117.725,80.287 118.524,80.287 118.524,83.387 117.725,83.387 117.725,84.387 103.725,84.387 103.725,83.387 102.925,83.387 102.925,80.287 103.725,80.287 103.725,74.487 102.925,74.487 102.925,71.387 103.725,71.387 103.725,70.387 117.725,70.387" style="fill:none;stroke-width:0.050000mm;stroke:black"/>
<polygon points="193.925,71.387 194.725,71.387 194.725,74.487 193.925,74.487 193.925,80.287 194.725,80.287 194.725,83.387 193.925,83.387 193.925,84.387 179.925,84.387 179.925,83.387 179.125,83.387 179.125,80.287 179.925,80.287 179.925,74.487 179.125,74.487 179.125,71.387 179.925,71.387 179.925,70.387 193.925,70.387" style="fill:none;stroke-width:0.050000mm;stroke:black"/>
<polygon points="232.025,71.387 232.825,71.387 232.825,74.487 232.025,74.487 232.025,80.287 232.825,80.287 232.825,83.387 232.025,83.387 232.025,84.387 218.025,84.387 218.025,83.387 217.225,83.387 217.225,80.287 218.025,80.287 218.025,74.487 217.225,74.487 217.225,71.387 218.025,71.387 218.025,70.387 232.025,70.387" style="fill:none;stroke-width:0.050000mm;stroke:black"/>
<polygon points="31.625,65.625 37.425,65.625 37.425,64.825 40.525,64.825 40.525,65.625 41.525,65.625 41.525,79.625 40.525,79.625 40.525,80.425 37.425,80.425 37.425,79.625 31.625,79.625 31.625,80.425 28.525,80.425 28.525,79.625 27.525,79.625 27.525,65.625 28.525,65.625 28.525,64.825 31.625,64.825" style="fill:none;stroke-width:0.050000mm;stroke:black"/>
<polygon points="260.225,65.625 266.025,65.625 266.025,64.825 269.125,64.825 269.125,65.625 270.125,65.625 270.125,79.625 269.125,79.625 269.125,80.425 266.025,80.425 266.025,79.625 260.225,79.625 260.225,80.425 257.125,80.425 257.125,79.625 256.125,79.625 256.125,65.625 257.125,65.625 257.125,64.825 260.225,64.825" style="fill:none;stroke-width:0.050000mm;stroke:black"/>
<polygon points="98.675,66.625 99.475,66.625 99.475,69.725 98.675,69.725 98.675,75.525 99.475,75.525 99.475,78.625 98.675,78.625 98.675,79.625 84.675,79.625 84.675,78.625 83.875,78.625 83.875,75.525 84.675,75.525 84.675,69.725 83.875,69.725 83.875,66.625 84.675,66.625 84.675,65.625 98.675,65.625" style="fill:none;stroke-width:0.050000mm;stroke:black"/>
<polygon points="212.975,66.625 213.775,66.625 213.775,69.725 212.975,69.725 212.975,75.525 213.775,75.525 213.775,78.625 212.975,78.625 212.975,79.625 198.975,79.625 198.975,78.625 198.175,78.625 198.175,75.525 198.975,75.525 198.975,69.725 198.175,69.725 198.175,66.625 198.975,66.625 198.975,65.625 212.975,65.625" style="fill:none;stroke-width:0.050000mm;stroke:black"/>
<polygon points="60.575,61.862 61.375,61.862 61.375,64.962 60.575,64.962 60.575,70.762 61.375,70.762 61.375,73.862 60.575,73.862 60.575,74.862 46.575,74.862 46.575,73.862 45.775,73.862 45.775,70.762 46.575,70.762 46.575,64.962 45.775,64.962 45.775,61.862 46.575,61.862 46.575,60.862 60.575,60.862" style="fill:none;stroke-width:0.050000mm;stroke:black"/>
<polygon points="136.775,61.862 137.575,61.862 137.575,64.962 136.775,64.962 136.775,70.762 137.575,70.762 137.575,73.862 136.775,73.862 136.775,74.862 122.775,74.862 122.775,73.862 121.975,73.862 121.975,70.762 122.775,70.762 122.775,64.962 121.975,64.962 121.975,61.862 122.775,61.862 122.775,60.862 136.775,60.862" style="fill:none;stroke-width:0.050000mm;stroke:black"/>
<polygon points="174.875,61.862 175.675,61.862 175.675,64.962 174.875,64.962 174.875,70.762 175.675,70.762 175.675,73.862 174.875,73.862 174.875,74.862 160.875,74.862 160.875,73.862 160.075,73.862 160.075,70.762 160.875,70.762 160.875,64.962 160.075,64.962 160.075,61.862 160.875,61.862 160.875,60.862 174.875,60.862" style="fill:none;stroke-width:0.050000mm;stroke:black"/>
<polygon points="251.075,61.862 251.875,61.862 251.875,64.962 251.075,64.962 251.075,70.762 251.875,70.762 251.875,73.862 251.075,73.862 251.075,74.862 237.075,74.862 237.075,73.862 236.275,73.862 236.275,70.762 237.075,70.762 237.075,64.962 236.275,64.962 236.275,61.862 237.075,61.862 237.075,60.862 251.075,60.862" style="fill:none;stroke-width:0.050000mm;stroke:black"/>
<polygon points="79.625,52.337 80.425,52.337 80.425,55.437 79.625,55.437 79.625,61.237 80.425,61.237 80.425,64.337 79.625,64.337 79.625,65.337 65.625,65.337 65.625,64.337 64.825,64.337 64.825,61.237 65.625,61.237 65.625,55.437 64.825,55.437 64.825,52.337 65.625,52.337 65.625,51.337 79.625,51.337" style="fill:none;stroke-width:0.050000mm;stroke:black"/>
<polygon points="117.725,52.337 118.524,52.337 118.524,55.437 117.725,55.437 117.725,61.237 118.524,61.237 118.524,64.337 117.725,64.337 117.725,65.337 103.725,65.337 103.725,64.337 102.925,64.337 102.925,61.237 103.725,61.237 103.725,55.437 102.925,55.437 102.925,52.337 103.725,52.337 103.725,51.337 117.725,51.337" style="fill:none;stroke-width:0.050000mm;stroke:black"/>
<polygon points="193.925,52.337 194.725,52.337 194.725,55.437 193.925,55.437 193.925,61.237 194.725,61.237 194.725,64.337 193.925,64.337 193.925,65.337 179.925,65.337 179.925,64.337 179.125,64.337 179.125,61.237 179.925,61.237 179.925,55.437 179.125,55.437 179.125,52.337 179.925,52.337 179.925,51.337 193.925,51.337" style="fill:none;stroke-width:0.050000mm;stroke:black"/>
<polygon points="232.025,52.337 232.825,52.337 232.825,55.437 232.025,55.437 232.025,61.237 232.825,61.237 232.825,64.337 232.025,64.337 232.025,65.337 218.025,65.337 218.025,64.337 217.225,64.337 217.225,61.237 218.025,61.237 218.025,55.437 217.225,55.437 217.225,52.337 218.025,52.337 218.025,51.337 232.025,51.337" style="fill:none;stroke-width:0.050000mm;stroke:black"/>
<polygon points="98.675,47.574 99.475,47.574 99.475,50.674 98.675,50.674 98.675,56.474 99.475,56.474 99.475,59.574 98.675,59.574 98.675,60.574 84.675,60.574 84.675,59.574 83.875,59.574 83.875,56.474 84.675,56.474 84.675,50.674 83.875,50.674 83.875,47.574 84.675,47.574 84.675,46.574 98.675,46.574" style="fill:none;stroke-width:0.050000mm;stroke:black"/>
<polygon points="212.975,47.574 213.775,47.574 213.775,50.674 212.975,50.674 212.975,56.474 213.775,56.474 213.775,59.574 212.975,59.574 212.975,60.574 198.975,60.574 198.975,59.574 198.175,59.574 198.175,56.474 198.975,56.474 198.975,50.674 198.175,50.674 198.175,47.574 198.975,47.574 198.975,46.574 212.975,46.574" style="fill:none;stroke-width:0.050000mm;stroke:black"/>
<polygon points="60.574,42.812 61.374,42.812 61.374,45.912 60.574,45.912 60.574,51.712 61.374,51.712 61.374,54.812 60.574,54.812 60.574,55.812 46.574,55.812 46.574,54.812 45.775,54.812 45.775,51.712 46.574,51.712 46.574,45.912 45.775,45.912 45.775,42.812 46.574,42.812 46.574,41.812 60.574,41.812" style="fill:none;stroke-width:0.050000mm;stroke:black"/>
<polygon points="136.775,42.812 137.575,42.812 137.575,45.912 136.775,45.912 136.775,51.712 137.575,51.712 137.575,54.812 136.775,54.812 136.775,55.812 122.775,55.812 122.775,54.812 121.975,54.812 121.975,51.712 122.775,51.712 122.775,45.912 121.975,45.912 121.975,42.812 122.775,42.812 122.775,41.812 136.775,41.812" style="fill:none;stroke-width:0.050000mm;stroke:black"/>
<polygon points="174.875,42.812 175.675,42.812 175.675,45.912 174.875,45.912 174.875,51.712 175.675,51.712 175.675,54.812 174.875,54.812 174.875,55.812 160.875,55.812 160.875,54.812 160.075,54.812 160.075,51.712 160.875,51.712 160.875,45.912 160.075,45.912 160.075,42.812 160.875,42.812 160.875,41.812 174.875,41.812" style="fill:none;stroke-width:0.050000mm;stroke:black"/>
<polygon points="251.075,42.812 251.875,42.812 251.875,45.912 251.075,45.912 251.075,51.712 251.875,51.712 251.875,54.812 251.075,54.812 251.075,55.812 237.075,55.812 237.075,54.812 236.275,54.812 236.275,51.712 237.075,51.712 237.075,45.912 236.275,45.912 236.275,42.812 237.075,42.812 237.075,41.812 251.075,41.812" style="fill:none;stroke-width:0.050000mm;stroke:black"/>
<polygon points="79.625,33.287 80.425,33.287 80.425,36.387 79.625,36.387 79.625,42.187 80.425,42.187 80.425,45.287 79.625,45.287 79.625,46.287 65.625,46.287 65.625,45.287 64.825,45.287 64.825,42.187 65.625,42.187 65.625,36.387 64.825,36.387 64.825,33.287 65.625,33.287 65.625,32.287 79.625,32.287" style="fill:none;stroke-width:0.050000mm;stroke:black"/>
<polygon points="117.725,33.287 118.524,33.287 118.524,36.387 117.725,36.387 117.725,42.187 118.524,42.187 118.524,45.287 117.725,45.287 117.725,46.287 103.725,46.287 103.725,45.287 102.925,45.287 102.925,42.187 103.725,42.187 103.725,36.387 102.925,36.387 102.925,33.287 103.725,33.287 103.725,32.287 117.725,32.287" style="fill:none;stroke-width:0.050000mm;stroke:black"/>
<polygon points="193.925,33.287 194.725,33.287 194.725,36.387 193.925,36.387 193.925,42.187 194.725,42.187 194.725,45.287 193.925,45.287 193.925,46.287 179.925,46.287 179.925,45.287 179.125,45.287 179.125,42.187 179.925,42.187 179.925,36.387 179.125,36.387 179.125,33.287 179.925,33.287 179.925,32.287 193.925,32.287" style="fill:none;stroke-width:0.050000mm;stroke:black"/>
<polygon points="232.025,33.287 232.825,33.287 232.825,36.387 232.025,36.387 232.025,42.187 232.825,42.187 232.825,45.287 232.025,45.287 232.025,46.287 218.025,46.287 218.025,45.287 217.225,45.287 217.225,42.187 218.025,42.187 218.025,36.387 217.225,36.387 217.225,33.287 218.025,33.287 218.025,32.287 232.025,32.287" style="fill:none;stroke-width:0.050000mm;stroke:black"/>
<polygon points="98.675,28.525 99.475,28.525 99.475,31.625 98.675,31.625 98.675,37.425 99.475,37.425 99.475,40.525 98.675,40.525 98.675,41.525 84.675,41.525 84.675,40.525 83.875,40.525 83.875,37.425 84.675,37.425 84.675,31.625 83.875,31.625 83.875,28.525 84.675,28.525 84.675,27.525 98.675,27.525" style="fill:none;stroke-width:0.050000mm;stroke:black"/>
<polygon points="212.975,28.525 213.775,28.525 213.775,31.625 212.975,31.625 212.975,37.425 213.775,37.425 213.775,40.525 212.975,40.525 212.975,41.525 198.975,41.525 198.975,40.525 198.175,40.525 198.175,37.425 198.975,37.425 198.975,31.625 198.175,31.625 198.175,28.525 198.975,28.525 198.975,27.525 212.975,27.525" style="fill:none;stroke-width:0.050000mm;stroke:black"/>
<polygon points="130.923,31.954 131.020,31.965 131.117,31.985 131.211,32.011 131.303,32.045 131.392,32.086 131.478,32.134 131.560,32.189 131.637,32.249 131.709,32.316 131.776,32.387 131.836,32.465 131.891,32.546 131.939,32.633 131.980,32.722 132.014,32.814 132.040,32.908 132.060,33.004 132.071,33.102 132.075,33.200 132.071,33.298 132.060,33.396 132.040,33.492 132.014,33.586 131.980,33.678 131.939,33.767 131.891,33.853 131.836,33.935 131.776,34.012 131.709,34.084 131.637,34.151 131.560,34.211 131.478,34.266 131.392,34.314 131.303,34.355 131.211,34.389 131.117,34.415 131.020,34.435 130.923,34.446 130.824,34.450 130.727,34.446 130.628,34.435 130.532,34.415 130.439,34.389 130.347,34.355 130.258,34.314 130.172,34.266 130.090,34.211 130.013,34.151 129.941,34.084 129.874,34.012 129.814,33.935 129.758,33.853 129.711,33.767 129.669,33.678 129.636,33.586 129.610,33.492 129.590,33.396 129.579,33.298 129.574,33.200 129.579,33.102 129.590,33.004 129.610,32.908 129.636,32.814 129.669,32.722 129.711,32.633 129.758,32.546 129.814,32.465 129.874,32.387 129.941,32.316 130.013,32.249 130.090,32.189 130.172,32.134 130.258,32.086 130.347,32.045 130.439,32.011 130.532,31.985 130.628,31.965 130.727,31.954 130.824,31.950" style="fill:none;stroke-width:0.050000mm;stroke:black"/>
<polygon points="33.923,31.954 34.021,31.965 34.117,31.985 34.211,32.011 34.303,32.045 34.392,32.086 34.478,32.134 34.560,32.189 34.637,32.249 34.709,32.316 34.776,32.387 34.836,32.465 34.891,32.546 34.939,32.633 34.980,32.722 35.014,32.814 35.040,32.908 35.060,33.004 35.071,33.102 35.075,33.200 35.071,33.298 35.060,33.396 35.040,33.492 35.014,33.586 34.980,33.678 34.939,33.767 34.891,33.853 34.836,33.935 34.776,34.012 34.709,34.084 34.637,34.151 34.560,34.211 34.478,34.266 34.392,34.314 34.303,34.355 34.211,34.389 34.117,34.415 34.021,34.435 33.923,34.446 33.825,34.450 33.727,34.446 33.629,34.435 33.533,34.415 33.439,34.389 33.347,34.355 33.258,34.314 33.172,34.266 33.090,34.211 33.013,34.151 32.941,34.084 32.874,34.012 32.814,33.935 32.759,33.853 32.711,33.767 32.670,33.678 32.636,33.586 32.610,33.492 32.590,33.396 32.579,33.298 32.575,33.200 32.579,33.102 32.590,33.004 32.610,32.908 32.636,32.814 32.670,32.722 32.711,32.633 32.759,32.546 32.814,32.465 32.874,32.387 32.941,32.316 33.013,32.249 33.090,32.189 33.172,32.134 33.258,32.086 33.347,32.045 33.439,32.011 33.533,31.985 33.629,31.965 33.727,31.954 33.825,31.950" style="fill:none;stroke-width:0.050000mm;stroke:black"/>
<polygon points="166.923,31.954 167.021,31.965 167.117,31.985 167.211,32.011 167.303,32.045 167.392,32.086 167.478,32.134 167.560,32.189 167.637,32.249 167.709,32.316 167.776,32.387 167.836,32.465 167.891,32.546 167.939,32.633 167.980,32.722 168.014,32.814 168.040,32.908 168.060,33.004 168.071,33.102 168.075,33.200 168.071,33.298 168.060,33.396 168.040,33.492 168.014,33.586 167.980,33.678 167.939,33.767 167.891,33.853 167.836,33.935 167.776,34.012 167.709,34.084 167.637,34.151 167.560,34.211 167.478,34.266 167.392,34.314 167.303,34.355 167.211,34.389 167.117,34.415 167.021,34.435 166.923,34.446 166.825,34.450 166.727,34.446 166.629,34.435 166.533,34.415 166.439,34.389 166.347,34.355 166.258,34.314 166.172,34.266 166.090,34.211 166.013,34.151 165.941,34.084 165.874,34.012 165.814,33.935 165.759,33.853 165.711,33.767 165.670,33.678 165.636,33.586 165.610,33.492 165.590,33.396 165.579,33.298 165.575,33.200 165.579,33.102 165.590,33.004 165.610,32.908 165.636,32.814 165.670,32.722 165.711,32.633 165.759,32.546 165.814,32.465 165.874,32.387 165.941,32.316 166.013,32.249 166.090,32.189 166.172,32.134 166.258,32.086 166.347,32.045 166.439,32.011 166.533,31.985 166.629,31.965 166.727,31.954 166.825,31.950" style="fill:none;stroke-width:0.050000mm;stroke:black"/>
<polygon points="263.923,31.954 264.021,31.965 264.117,31.985 264.211,32.011 264.303,32.045 264.392,32.086 264.478,32.134 264.560,32.189 264.637,32.249 264.709,32.316 264.776,32.387 264.836,32.465 264.891,32.546 264.939,32.633 264.980,32.722 265.014,32.814 265.040,32.908 265.060,33.004 265.071,33.102 265.075,33.200 265.071,33.298 265.060,33.396 265.040,33.492 265.014,33.586 264.980,33.678 264.939,33.767 264.891,33.853 264.836,33.935 264.776,34.012 264.709,34.084 264.637,34.151 264.560,34.211 264.478,34.266 264.392,34.314 264.303,34.355 264.211,34.389 264.117,34.415 264.021,34.435 263.923,34.446 263.825,34.450 263.727,34.446 263.629,34.435 263.533,34.415 263.439,34.389 263.347,34.355 263.258,34.314 263.172,34.266 263.090,34.211 263.013,34.151 262.941,34.084 262.874,34.012 262.814,33.935 262.759,33.853 262.711,33.767 262.670,33.678 262.636,33.586 262.610,33.492 262.590,33.396 262.579,33.298 262.575,33.200 262.579,33.102 262.590,33.004 262.610,32.908 262.636,32.814 262.670,32.722 262.711,32.633 262.759,32.546 262.814,32.465 262.874,32.387 262.941,32.316 263.013,32.249 263.090,32.189 263.172,32.134 263.258,32.086 263.347,32.045 263.439,32.011 263.533,31.985 263.629,31.965 263.727,31.954 263.825,31.950" style="fill:none;stroke-width:0.050000mm;stroke:black"/>
<polygon points="42.824,181.900 42.824,134.800 63.574,134.800 63.574,181.900" style="fill:none;stroke-width:0.050000mm;stroke:black"/>
<polygon points="80.925,181.900 80.925,134.800 120.725,134.800 120.725,181.900" style="fill:none;stroke-width:0.050000mm;stroke:black"/>
<polygon points="176.175,181.900 176.175,134.800 215.975,134.800 215.975,181.900" style="fill:none;stroke-width:0.050000mm;stroke:black"/>
<polygon points="233.325,181.900 233.325,134.800 254.075,134.800 254.075,181.900" style="fill:none;stroke-width:0.050000mm;stroke:black"/>

<polygon points="53.297,138.554 53.395,138.565 53.491,138.585 53.585,138.611 53.677,138.645 53.766,138.686 53.852,138.734 53.934,138.789 54.011,138.849 54.083,138.916 54.150,138.988 54.210,139.065 54.265,139.147 54.313,139.233 54.354,139.322 54.388,139.414 54.414,139.508 54.434,139.604 54.445,139.702 54.449,139.800 54.445,139.898 54.434,139.996 54.414,140.092 54.388,140.186 54.354,140.278 54.313,140.367 54.265,140.453 54.210,140.535 54.150,140.612 54.083,140.684 54.011,140.751 53.934,140.811 53.852,140.866 53.766,140.914 53.677,140.955 53.585,140.989 53.491,141.015 53.395,141.035 53.297,141.046 53.199,141.050 53.101,141.046 53.003,141.035 52.907,141.015 52.813,140.989 52.721,140.955 52.632,140.914 52.546,140.866 52.464,140.811 52.387,140.751 52.315,140.684 52.248,140.612 52.188,140.535 52.133,140.453 52.085,140.367 52.044,140.278 52.010,140.186 51.984,140.092 51.964,139.996 51.953,139.898 51.949,139.800 51.953,139.702 51.964,139.604 51.984,139.508 52.010,139.414 52.044,139.322 52.085,139.233 52.133,139.147 52.188,139.065 52.248,138.988 52.315,138.916 52.387,138.849 52.464,138.789 52.546,138.734 52.632,138.686 52.721,138.645 52.813,138.611 52.907,138.585 53.003,138.565 53.101,138.554 53.199,138.550" style="fill:none;stroke-width:0.050000mm;stroke:black"/>
<polygon points="53.297,175.654 53.395,175.665 53.491,175.685 53.585,175.711 53.677,175.745 53.766,175.786 53.852,175.834 53.934,175.889 54.011,175.949 54.083,176.016 54.150,176.088 54.210,176.165 54.265,176.247 54.313,176.333 54.354,176.422 54.388,176.514 54.414,176.608 54.434,176.704 54.445,176.802 54.449,176.900 54.445,176.998 54.434,177.096 54.414,177.192 54.388,177.286 54.354,177.378 54.313,177.467 54.265,177.553 54.210,177.635 54.150,177.712 54.083,177.784 54.011,177.851 53.934,177.911 53.852,177.966 53.766,178.014 53.677,178.055 53.585,178.089 53.491,178.115 53.395,178.135 53.297,178.146 53.199,178.150 53.101,178.146 53.003,178.135 52.907,178.115 52.813,178.089 52.721,178.055 52.632,178.014 52.546,177.966 52.464,177.911 52.387,177.851 52.315,177.784 52.248,177.712 52.188,177.635 52.133,177.553 52.085,177.467 52.044,177.378 52.010,177.286 51.984,177.192 51.964,177.096 51.953,176.998 51.949,176.900 51.953,176.802 51.964,176.704 51.984,176.608 52.010,176.514 52.044,176.422 52.085,176.333 52.133,176.247 52.188,176.165 52.248,176.088 52.315,176.016 52.387,175.949 52.464,175.889 52.546,175.834 52.632,175.786 52.721,175.745 52.813,175.711 52.907,175.685 53.003,175.665 53.101,175.654 53.199,175.650" style="fill:none;stroke-width:0.050000mm;stroke:black"/>
<polygon points="100.923,138.554 101.021,138.565 101.117,138.585 101.211,138.611 101.303,138.645 101.392,138.686 101.478,138.734 101.560,138.789 101.637,138.849 101.709,138.916 101.776,138.988 101.836,139.065 101.891,139.147 101.939,139.233 101.980,139.322 102.014,139.414 102.040,139.508 102.060,139.604 102.071,139.702 102.075,139.800 102.071,139.898 102.060,139.996 102.040,140.092 102.014,140.186 101.980,140.278 101.939,140.367 101.891,140.453 101.836,140.535 101.776,140.612 101.709,140.684 101.637,140.751 101.560,140.811 101.478,140.866 101.392,140.914 101.303,140.955 101.211,140.989 101.117,141.015 101.021,141.035 100.923,141.046 100.825,141.050 100.727,141.046 100.629,141.035 100.533,141.015 100.439,140.989 100.347,140.955 100.258,140.914 100.172,140.866 100.090,140.811 100.013,140.751 99.941,140.684 99.874,140.612 99.814,140.535 99.759,140.453 99.711,140.367 99.670,140.278 99.636,140.186 99.610,140.092 99.590,139.996 99.579,139.898 99.575,139.800 99.579,139.702 99.590,139.604 99.610,139.508 99.636,139.414 99.670,139.322 99.711,139.233 99.759,139.147 99.814,139.065 99.874,138.988 99.941,138.916 100.013,138.849 100.090,138.789 100.172,138.734 100.258,138.686 100.347,138.645 100.439,138.611 100.533,138.585 100.629,138.565 100.727,138.554 100.825,138.550" style="fill:none;stroke-width:0.050000mm;stroke:black"/>
<polygon points="100.923,175.654 101.021,175.665 101.117,175.685 101.211,175.711 101.303,175.745 101.392,175.786 101.478,175.834 101.560,175.889 101.637,175.949 101.709,176.016 101.776,176.088 101.836,176.165 101.891,176.247 101.939,176.333 101.980,176.422 102.014,176.514 102.040,176.608 102.060,176.704 102.071,176.802 102.075,176.900 102.071,176.998 102.060,177.096 102.040,177.192 102.014,177.286 101.980,177.378 101.939,177.467 101.891,177.553 101.836,177.635 101.776,177.712 101.709,177.784 101.637,177.851 101.560,177.911 101.478,177.966 101.392,178.014 101.303,178.055 101.211,178.089 101.117,178.115 101.021,178.135 100.923,178.146 100.825,178.150 100.727,178.146 100.629,178.135 100.533,178.115 100.439,178.089 100.347,178.055 100.258,178.014 100.172,177.966 100.090,177.911 100.013,177.851 99.941,177.784 99.874,177.712 99.814,177.635 99.759,177.553 99.711,177.467 99.670,177.378 99.636,177.286 99.610,177.192 99.590,177.096 99.579,176.998 99.575,176.900 99.579,176.802 99.590,176.704 99.610,176.608 99.636,176.514 99.670,176.422 99.711,176.333 99.759,176.247 99.814,176.165 99.874,176.088 99.941,176.016 100.013,175.949 100.090,175.889 100.172,175.834 100.258,175.786 100.347,175.745 100.439,175.711 100.533,175.685 100.629,175.665 100.727,175.654 100.825,175.650" style="fill:none;stroke-width:0.050000mm;stroke:black"/>
<polygon points="196.173,138.554 196.271,138.565 196.367,138.585 196.461,138.611 196.553,138.645 196.642,138.686 196.728,138.734 196.810,138.789 196.887,138.849 196.959,138.916 197.026,138.988 197.086,139.065 197.141,139.147 197.189,139.233 197.230,139.322 197.264,139.414 197.290,139.508 197.310,139.604 197.321,139.702 197.325,139.800 197.321,139.898 197.310,139.996 197.290,140.092 197.264,140.186 197.230,140.278 197.189,140.367 197.141,140.453 197.086,140.535 197.026,140.612 196.959,140.684 196.887,140.751 196.810,140.811 196.728,140.866 196.642,140.914 196.553,140.955 196.461,140.989 196.367,141.015 196.271,141.035 196.173,141.046 196.075,141.050 195.977,141.046 195.879,141.035 195.783,141.015 195.689,140.989 195.597,140.955 195.508,140.914 195.422,140.866 195.340,140.811 195.263,140.751 195.191,140.684 195.124,140.612 195.064,140.535 195.009,140.453 194.961,140.367 194.920,140.278 194.886,140.186 194.860,140.092 194.840,139.996 194.829,139.898 194.825,139.800 194.829,139.702 194.840,139.604 194.860,139.508 194.886,139.414 194.920,139.322 194.961,139.233 195.009,139.147 195.064,139.065 195.124,138.988 195.191,138.916 195.263,138.849 195.340,138.789 195.422,138.734 195.508,138.686 195.597,138.645 195.689,138.611 195.783,138.585 195.879,138.565 195.977,138.554 196.075,138.550" style="fill:none;stroke-width:0.050000mm;stroke:black"/>
<polygon points="196.173,175.654 196.271,175.665 196.367,175.685 196.461,175.711 196.553,175.745 196.642,175.786 196.728,175.834 196.810,175.889 196.887,175.949 196.959,176.016 197.026,176.088 197.086,176.165 197.141,176.247 197.189,176.333 197.230,176.422 197.264,176.514 197.290,176.608 197.310,176.704 197.321,176.802 197.325,176.900 197.321,176.998 197.310,177.096 197.290,177.192 197.264,177.286 197.230,177.378 197.189,177.467 197.141,177.553 197.086,177.635 197.026,177.712 196.959,177.784 196.887,177.851 196.810,177.911 196.728,177.966 196.642,178.014 196.553,178.055 196.461,178.089 196.367,178.115 196.271,178.135 196.173,178.146 196.075,178.150 195.977,178.146 195.879,178.135 195.783,178.115 195.689,178.089 195.597,178.055 195.508,178.014 195.422,177.966 195.340,177.911 195.263,177.851 195.191,177.784 195.124,177.712 195.064,177.635 195.009,177.553 194.961,177.467 194.920,177.378 194.886,177.286 194.860,177.192 194.840,177.096 194.829,176.998 194.825,176.900 194.829,176.802 194.840,176.704 194.860,176.608 194.886,176.514 194.920,176.422 194.961,176.333 195.009,176.247 195.064,176.165 195.124,176.088 195.191,176.016 195.263,175.949 195.340,175.889 195.422,175.834 195.508,175.786 195.597,175.745 195.689,175.711 195.783,175.685 195.879,175.665 195.977,175.654 196.075,175.650" style="fill:none;stroke-width:0.050000mm;stroke:black"/>
<polygon points="243.798,138.554 243.896,138.565 243.992,138.585 244.086,138.611 244.178,138.645 244.267,138.686 244.353,138.734 244.435,138.789 244.512,138.849 244.584,138.916 244.651,138.988 244.711,139.065 244.766,139.147 244.814,139.233 244.855,139.322 244.889,139.414 244.915,139.508 244.935,139.604 244.946,139.702 244.950,139.800 244.946,139.898 244.935,139.996 244.915,140.092 244.889,140.186 244.855,140.278 244.814,140.367 244.766,140.453 244.711,140.535 244.651,140.612 244.584,140.684 244.512,140.751 244.435,140.811 244.353,140.866 244.267,140.914 244.178,140.955 244.086,140.989 243.992,141.015 243.896,141.035 243.798,141.046 243.700,141.050 243.602,141.046 243.504,141.035 243.408,141.015 243.314,140.989 243.222,140.955 243.133,140.914 243.047,140.866 242.965,140.811 242.888,140.751 242.816,140.684 242.749,140.612 242.689,140.535 242.634,140.453 242.586,140.367 242.545,140.278 242.511,140.186 242.485,140.092 242.465,139.996 242.454,139.898 242.450,139.800 242.454,139.702 242.465,139.604 242.485,139.508 242.511,139.414 242.545,139.322 242.586,139.233 242.634,139.147 242.689,139.065 242.749,138.988 242.816,138.916 242.888,138.849 242.965,138.789 243.047,138.734 243.133,138.686 243.222,138.645 243.314,138.611 243.408,138.585 243.504,138.565 243.602,138.554 243.700,138.550" style="fill:none;stroke-width:0.050000mm;stroke:black"/>
<polygon points="243.798,175.654 243.896,175.665 243.992,175.685 244.086,175.711 244.178,175.745 244.267,175.786 244.353,175.834 244.435,175.889 244.512,175.949 244.584,176.016 244.651,176.088 244.711,176.165 244.766,176.247 244.814,176.333 244.855,176.422 244.889,176.514 244.915,176.608 244.935,176.704 244.946,176.802 244.950,176.900 244.946,176.998 244.935,177.096 244.915,177.192 244.889,177.286 244.855,177.378 244.814,177.467 244.766,177.553 244.711,177.635 244.651,177.712 244.584,177.784 244.512,177.851 244.435,177.911 244.353,177.966 244.267,178.014 244.178,178.055 244.086,178.089 243.992,178.115 243.896,178.135 243.798,178.146 243.700,178.150 243.602,178.146 243.504,178.135 243.408,178.115 243.314,178.089 243.222,178.055 243.133,178.014 243.047,177.966 242.965,177.911 242.888,177.851 242.816,177.784 242.749,177.712 242.689,177.635 242.634,177.553 242.586,177.467 242.545,177.378 242.511,177.286 242.485,177.192 242.465,177.096 242.454,176.998 242.450,176.900 242.454,176.802 242.465,176.704 242.485,176.608 242.511,176.514 242.545,176.422 242.586,176.333 242.634,176.247 242.689,176.165 242.749,176.088 242.816,176.016 242.888,175.949 242.965,175.889 243.047,175.834 243.133,175.786 243.222,175.745 243.314,175.711 243.408,175.685 243.504,175.665 243.602,175.654 243.700,175.650" style="fill:none;stroke-width:0.050000mm;stroke:black"/>
</svg>
