<?xml version="1.0"?>
<!-- Generated by SVGo -->
<svg width="297.651mm" height="202.401mm"
     viewBox="0.000 0.000 297.651 202.401"
     xmlns="http://www.w3.org/2000/svg" 
     xmlns:xlink="http://www.w3.org/1999/xlink">
<polygon points="45.824,168.600 45.824,171.900 60.025,171.900 60.025,168.600" style="fill:none;stroke-width:0.050000mm;stroke:black"/>
<polygon points="83.925,168.600 83.925,171.900 98.125,171.900 98.125,168.600" style="fill:none;stroke-width:0.050000mm;stroke:black"/>
<polygon points="102.975,168.600 102.975,171.900 117.175,171.900 117.175,168.600" style="fill:none;stroke-width:0.050000mm;stroke:black"/>
<polygon points="179.175,168.600 179.175,171.900 193.375,171.900 193.375,168.600" style="fill:none;stroke-width:0.050000mm;stroke:black"/>
<polygon points="198.225,168.600 198.225,171.900 212.425,171.900 212.425,168.600" style="fill:none;stroke-width:0.050000mm;stroke:black"/>
<polygon points="236.325,168.600 236.325,171.900 250.525,171.900 250.525,168.600" style="fill:none;stroke-width:0.050000mm;stroke:black"/>
<polygon points="47.574,150.550 47.574,151.350 46.574,151.350 46.574,165.350 47.574,165.350 47.574,166.150 50.675,166.150 50.675,165.350 56.474,165.350 56.474,166.150 59.574,166.150 59.574,165.350 60.574,165.350 60.574,151.350 59.574,151.350 59.574,150.550 56.474,150.550 56.474,151.350 50.675,151.350 50.675,150.550" style="fill:none;stroke-width:0.050000mm;stroke:black"/>
<polygon points="85.675,150.550 85.675,151.350 84.675,151.350 84.675,165.350 85.675,165.350 85.675,166.150 88.774,166.150 88.774,165.350 94.575,165.350 94.575,166.150 97.675,166.150 97.675,165.350 98.675,165.350 98.675,151.350 97.675,151.350 97.675,150.550 94.575,150.550 94.575,151.350 88.774,151.350 88.774,150.550" style="fill:none;stroke-width:0.050000mm;stroke:black"/>
<polygon points="104.725,150.550 104.725,151.350 103.725,151.350 103.725,165.350 104.725,165.350 104.725,166.150 107.824,166.150 107.824,165.350 113.625,165.350 113.625,166.150 116.725,166.150 116.725,165.350 117.725,165.350 117.725,151.350 116.725,151.350 116.725,150.550 113.625,150.550 113.625,151.350 107.824,151.350 107.824,150.550" style="fill:none;stroke-width:0.050000mm;stroke:black"/>
<polygon points="180.925,150.550 180.925,151.350 179.925,151.350 179.925,165.350 180.925,165.350 180.925,166.150 184.025,166.150 184.025,165.350 189.825,165.350 189.825,166.150 192.925,166.150 192.925,165.350 193.925,165.350 193.925,151.350 192.925,151.350 192.925,150.550 189.825,150.550 189.825,151.350 184.025,151.350 184.025,150.550" style="fill:none;stroke-width:0.050000mm;stroke:black"/>
<polygon points="199.975,150.550 199.975,151.350 198.975,151.350 198.975,165.350 199.975,165.350 199.975,166.150 203.075,166.150 203.075,165.350 208.875,165.350 208.875,166.150 211.975,166.150 211.975,165.350 212.975,165.350 212.975,151.350 211.975,151.350 211.975,150.550 208.875,150.550 208.875,151.350 203.075,151.350 203.075,150.550" style="fill:none;stroke-width:0.050000mm;stroke:black"/>
<polygon points="238.075,150.550 238.075,151.350 237.075,151.350 237.075,165.350 238.075,165.350 238.075,166.150 241.175,166.150 241.175,165.350 246.975,165.350 246.975,166.150 250.075,166.150 250.075,165.350 251.075,165.350 251.075,151.350 250.075,151.350 250.075,150.550 246.975,150.550 246.975,151.350 241.175,151.350 241.175,150.550" style="fill:none;stroke-width:0.050000mm;stroke:black"/>
<polygon points="45.824,144.800 45.824,148.100 60.024,148.100 60.024,144.800" style="fill:none;stroke-width:0.050000mm;stroke:black"/>
<polygon points="83.925,144.800 83.925,148.100 98.125,148.100 98.125,144.800" style="fill:none;stroke-width:0.050000mm;stroke:black"/>
<polygon points="102.975,144.800 102.975,148.100 117.175,148.100 117.175,144.800" style="fill:none;stroke-width:0.050000mm;stroke:black"/>
<polygon points="179.175,144.800 179.175,148.100 193.375,148.100 193.375,144.800" style="fill:none;stroke-width:0.050000mm;stroke:black"/>
<polygon points="198.225,144.800 198.225,148.100 212.425,148.100 212.425,144.800" style="fill:none;stroke-width:0.050000mm;stroke:black"/>
<polygon points="236.325,144.800 236.325,148.100 250.525,148.100 250.525,144.800" style="fill:none;stroke-width:0.050000mm;stroke:black"/>
<polygon points="24.525,24.525 24.525,115.962 120.725,115.962 120.725,77.862 139.775,77.862 139.775,24.525" style="fill:none;stroke-width:0.050000mm;stroke:black"/>
<polygon points="157.825,24.525 157.825,77.862 176.925,77.862 176.925,115.962 273.525,115.962 273.525,24.525" style="fill:none;stroke-width:0.050000mm;stroke:black"/>
<polygon points="60.574,99.962 61.374,99.962 61.374,103.062 60.574,103.062 60.574,108.862 61.374,108.862 61.374,111.962 60.574,111.962 60.574,112.962 46.574,112.962 46.574,111.962 45.775,111.962 45.775,108.862 46.574,108.862 46.574,103.062 45.775,103.062 45.775,99.962 46.574,99.962 46.574,98.962 60.574,98.962" style="fill:none;stroke-width:0.050000mm;stroke:black"/>
<polygon points="251.075,99.962 251.875,99.962 251.875,103.062 251.075,103.062 251.075,108.862 251.875,108.862 251.875,111.962 251.075,111.962 251.075,112.962 237.075,112.962 237.075,111.962 236.275,111.962 236.275,108.862 237.075,108.862 237.075,103.062 236.275,103.062 236.275,99.962 237.075,99.962 237.075,98.962 251.075,98.962" style="fill:none;stroke-width:0.050000mm;stroke:black"/>
<polygon points="79.625,90.437 80.425,90.437 80.425,93.537 79.625,93.537 79.625,99.337 80.425,99.337 80.425,102.437 79.625,102.437 79.625,103.437 65.625,103.437 65.625,102.437 64.825,102.437 64.825,99.337 65.625,99.337 65.625,93.537 64.825,93.537 64.825,90.437 65.625,90.437 65.625,89.437 79.625,89.437" style="fill:none;stroke-width:0.050000mm;stroke:black"/>
<polygon points="117.725,90.437 118.524,90.437 118.524,93.537 117.725,93.537 117.725,99.337 118.524,99.337 118.524,102.437 117.725,102.437 117.725,103.437 103.725,103.437 103.725,102.437 102.925,102.437 102.925,99.337 103.725,99.337 103.725,93.537 102.925,93.537 102.925,90.437 103.725,90.437 103.725,89.437 117.725,89.437" style="fill:none;stroke-width:0.050000mm;stroke:black"/>
<polygon points="193.925,90.437 194.725,90.437 194.725,93.537 193.925,93.537 193.925,99.337 194.725,99.337 194.725,102.437 193.925,102.437 193.925,103.437 179.925,103.437 179.925,102.437 179.125,102.437 179.125,99.337 179.925,99.337 179.925,93.537 179.125,93.537 179.125,90.437 179.925,90.437 179.925,89.437 193.925,89.437" style="fill:none;stroke-width:0.050000mm;stroke:black"/>
<polygon points="232.025,90.437 232.825,90.437 232.825,93.537 232.025,93.537 232.025,99.337 232.825,99.337 232.825,102.437 232.025,102.437 232.025,103.437 218.025,103.437 218.025,102.437 217.225,102.437 217.225,99.337 218.025,99.337 218.025,93.537 217.225,93.537 217.225,90.437 218.025,90.437 218.025,89.437 232.025,89.437" style="fill:none;stroke-width:0.050000mm;stroke:black"/>
<polygon points="98.675,85.675 99.475,85.675 99.475,88.775 98.675,88.775 98.675,94.575 99.475,94.575 99.475,97.675 98.675,97.675 98.675,98.675 84.675,98.675 84.675,97.675 83.875,97.675 83.875,94.575 84.675,94.575 84.675,88.775 83.875,88.775 83.875,85.675 84.675,85.675 84.675,84.675 98.675,84.675" style="fill:none;stroke-width:0.050000mm;stroke:black"/>
<polygon points="212.975,85.675 213.775,85.675 213.775,88.775 212.975,88.775 212.975,94.575 213.775,94.575 213.775,97.675 212.975,97.675 212.975,98.675 198.975,98.675 198.975,97.675 198.175,97.675 198.175,94.575 198.975,94.575 198.975,88.775 198.175,88.775 198.175,85.675 198.975,85.675 198.975,84.675 212.975,84.675" style="fill:none;stroke-width:0.050000mm;stroke:black"/>
<polygon points="60.574,80.912 61.374,80.912 61.374,84.012 60.574,84.012 60.574,89.812 61.374,89.812 61.374,92.912 60.574,92.912 60.574,93.912 46.574,93.912 46.574,92.912 45.775,92.912 45.775,89.812 46.574,89.812 46.574,84.012 45.775,84.012 45.775,80.912 46.574,80.912 46.574,79.912 60.574,79.912" style="fill:none;stroke-width:0.050000mm;stroke:black"/>
<polygon points="251.075,80.912 251.875,80.912 251.875,84.012 251.075,84.012 251.075,89.812 251.875,89.812 251.875,92.912 251.075,92.912 251.075,93.912 237.075,93.912 237.075,92.912 236.275,92.912 236.275,89.812 237.075,89.812 237.075,84.012 236.275,84.012 236.275,80.912 237.075,80.912 237.075,79.912 251.075,79.912" style="fill:none;stroke-width:0.050000mm;stroke:black"/>
<polygon points="79.625,71.387 80.425,71.387 80.425,74.487 79.625,74.487 79.625,80.287 80.425,80.287 80.425,83.387 79.625,83.387 79.625,84.387 65.625,84.387 65.625,83.387 64.825,83.387 64.825,80.287 65.625,80.287 65.625,74.487 64.825,74.487 64.825,71.387 65.625,71.387 65.625,70.387 79.625,70.387" style="fill:none;stroke-width:0.050000mm;stroke:black"/>
<polygon points="117.725,71.387 118.524,71.387 118.524,74.487 117.725,74.487 117.725,80.287 118.524,80.287 118.524,83.387 117.725,83.387 117.725,84.387 103.725,84.387 103.725,83.387 102.925,83.387 102.925,80.287 103.725,80.287 103.725,74.487 102.925,74.487 102.925,71.387 103.725,71.387 103.725,70.387 117.725,70.387" style="fill:none;stroke-width:0.050000mm;stroke:black"/>
<polygon points="193.925,71.387 194.725,71.387 194.725,74.487 193.925,74.487 193.925,80.287 194.725,80.287 194.725,83.387 193.925,83.387 193.925,84.387 179.925,84.387 179.925,83.387 179.125,83.387 179.125,80.287 179.925,80.287 179.925,74.487 179.125,74.487 179.125,71.387 179.925,71.387 179.925,70.387 193.925,70.387" style="fill:none;stroke-width:0.050000mm;stroke:black"/>
<polygon points="232.025,71.387 232.825,71.387 232.825,74.487 232.025,74.487 232.025,80.287 232.825,80.287 232.825,83.387 232.025,83.387 232.025,84.387 218.025,84.387 218.025,83.387 217.225,83.387 217.225,80.287 218.025,80.287 218.025,74.487 217.225,74.487 217.225,71.387 218.025,71.387 218.025,70.387 232.025,70.387" style="fill:none;stroke-width:0.050000mm;stroke:black"/>
<polygon points="31.625,65.625 37.425,65.625 37.425,64.825 40.525,64.825 40.525,65.625 41.525,65.625 41.525,79.625 40.525,79.625 40.525,80.425 37.425,80.425 37.425,79.625 31.625,79.625 31.625,80.425 28.525,80.425 28.525,79.625 27.525,79.625 27.525,65.625 28.525,65.625 28.525,64.825 31.625,64.825" style="fill:none;stroke-width:0.050000mm;stroke:black"/>
<polygon points="260.225,65.625 266.025,65.625 266.025,64.825 269.125,64.825 269.125,65.625 270.125,65.625 270.125,79.625 269.125,79.625 269.125,80.425 266.025,80.425 266.025,79.625 260.225,79.625 260.225,80.425 257.125,80.425 257.125,79.625 256.125,79.625 256.125,65.625 257.125,65.625 257.125,64.825 260.225,64.825" style="fill:none;stroke-width:0.050000mm;stroke:black"/>
<polygon points="98.675,66.625 99.475,66.625 99.475,69.725 98.675,69.725 98.675,75.525 99.475,75.525 99.475,78.625 98.675,78.625 98.675,79.625 84.675,79.625 84.675,78.625 83.875,78.625 83.875,75.525 84.675,75.525 84.675,69.725 83.875,69.725 83.875,66.625 84.675,66.625 84.675,65.625 98.675,65.625" style="fill:none;stroke-width:0.050000mm;stroke:black"/>
<polygon points="212.975,66.625 213.775,66.625 213.775,69.725 212.975,69.725 212.975,75.525 213.775,75.525 213.775,78.625 212.975,78.625 212.975,79.625 198.975,79.625 198.975,78.625 198.175,78.625 198.175,75.525 198.975,75.525 198.975,69.725 198.175,69.725 198.175,66.625 198.975,66.625 198.975,65.625 212.975,65.625" style="fill:none;stroke-width:0.050000mm;stroke:black"/>
<polygon points="60.575,61.862 61.375,61.862 61.375,64.962 60.575,64.962 60.575,70.762 61.375,70.762 61.375,73.862 60.575,73.862 60.575,74.862 46.575,74.862 46.575,73.862 45.775,73.862 45.775,70.762 46.575,70.762 46.575,64.962 45.775,64.962 45.775,61.862 46.575,61.862 46.575,60.862 60.575,60.862" style="fill:none;stroke-width:0.050000mm;stroke:black"/>
<polygon points="136.775,61.862 137.575,61.862 137.575,64.962 136.775,64.962 136.775,70.762 137.575,70.762 137.575,73.862 136.775,73.862 136.775,74.862 122.775,74.862 122.775,73.862 121.975,73.862 121.975,70.762 122.775,70.762 122.775,64.962 121.975,64.962 121.975,61.862 122.775,61.862 122.775,60.862 136.775,60.862" style="fill:none;stroke-width:0.050000mm;stroke:black"/>
<polygon points="174.875,61.862 175.675,61.862 175.675,64.962 174.875,64.962 174.875,70.762 175.675,70.762 175.675,73.862 174.875,73.862 174.875,74.862 160.875,74.862 160.875,73.862 160.075,73.862 160.075,70.762 160.875,70.762 160.875,64.962 160.075,64.962 160.075,61.862 160.875,61.862 160.875,60.862 174.875,60.862" style="fill:none;stroke-width:0.050000mm;stroke:black"/>
<polygon points="251.075,61.862 251.875,61.862 251.875,64.962 251.075,64.962 251.075,70.762 251.875,70.762 251.875,73.862 251.075,73.862 251.075,74.862 237.075,74.862 237.075,73.862 236.275,73.862 236.275,70.762 237.075,70.762 237.075,64.962 236.275,64.962 236.275,61.862 237.075,61.862 237.075,60.862 251.075,60.862" style="fill:none;stroke-width:0.050000mm;stroke:black"/>
<polygon points="79.625,52.337 80.425,52.337 80.425,55.437 79.625,55.437 79.625,61.237 80.425,61.237 80.425,64.337 79.625,64.337 79.625,65.337 65.625,65.337 65.625,64.337 64.825,64.337 64.825,61.237 65.625,61.237 65.625,55.437 64.825,55.437 64.825,52.337 65.625,52.337 65.625,51.337 79.625,51.337" style="fill:none;stroke-width:0.050000mm;stroke:black"/>
<polygon points="117.725,52.337 118.524,52.337 118.524,55.437 117.725,55.437 117.725,61.237 118.524,61.237 118.524,64.337 117.725,64.337 117.725,65.337 103.725,65.337 103.725,64.337 102.925,64.337 102.925,61.237 103.725,61.237 103.725,55.437 102.925,55.437 102.925,52.337 103.725,52.337 103.725,51.337 117.725,51.337" style="fill:none;stroke-width:0.050000mm;stroke:black"/>
<polygon points="193.925,52.337 194.725,52.337 194.725,55.437 193.925,55.437 193.925,61.237 194.725,61.237 194.725,64.337 193.925,64.337 193.925,65.337 179.925,65.337 179.925,64.337 179.125,64.337 179.125,61.237 179.925,61.237 179.925,55.437 179.125,55.437 179.125,52.337 179.925,52.337 179.925,51.337 193.925,51.337" style="fill:none;stroke-width:0.050000mm;stroke:black"/>
<polygon points="232.025,52.337 232.825,52.337 232.825,55.437 232.025,55.437 232.025,61.237 232.825,61.237 232.825,64.337 232.025,64.337 232.025,65.337 218.025,65.337 218.025,64.337 217.225,64.337 217.225,61.237 218.025,61.237 218.025,55.437 217.225,55.437 217.225,52.337 218.025,52.337 218.025,51.337 232.025,51.337" style="fill:none;stroke-width:0.050000mm;stroke:black"/>
<polygon points="98.675,47.574 99.475,47.574 99.475,50.674 98.675,50.674 98.675,56.474 99.475,56.474 99.475,59.574 98.675,59.574 98.675,60.574 84.675,60.574 84.675,59.574 83.875,59.574 83.875,56.474 84.675,56.474 84.675,50.674 83.875,50.674 83.875,47.574 84.675,47.574 84.675,46.574 98.675,46.574" style="fill:none;stroke-width:0.050000mm;stroke:black"/>
<polygon points="212.975,47.574 213.775,47.574 213.775,50.674 212.975,50.674 212.975,56.474 213.775,56.474 213.775,59.574 212.975,59.574 212.975,60.574 198.975,60.574 198.975,59.574 198.175,59.574 198.175,56.474 198.975,56.474 198.975,50.674 198.175,50.674 198.175,47.574 198.975,47.574 198.975,46.574 212.975,46.574" style="fill:none;stroke-width:0.050000mm;stroke:black"/>
<polygon points="60.574,42.812 61.374,42.812 61.374,45.912 60.574,45.912 60.574,51.712 61.374,51.712 61.374,54.812 60.574,54.812 60.574,55.812 46.574,55.812 46.574,54.812 45.775,54.812 45.775,51.712 46.574,51.712 46.574,45.912 45.775,45.912 45.775,42.812 46.574,42.812 46.574,41.812 60.574,41.812" style="fill:none;stroke-width:0.050000mm;stroke:black"/>
<polygon points="136.775,42.812 137.575,42.812 137.575,45.912 136.775,45.912 136.775,51.712 137.575,51.712 137.575,54.812 136.775,54.812 136.775,55.812 122.775,55.812 122.775,54.812 121.975,54.812 121.975,51.712 122.775,51.712 122.775,45.912 121.975,45.912 121.975,42.812 122.775,42.812 122.775,41.812 136.775,41.812" style="fill:none;stroke-width:0.050000mm;stroke:black"/>
<polygon points="174.875,42.812 175.675,42.812 175.675,45.912 174.875,45.912 174.875,51.712 175.675,51.712 175.675,54.812 174.875,54.812 174.875,55.812 160.875,55.812 160.875,54.812 160.075,54.812 160.075,51.712 160.875,51.712 160.875,45.912 160.075,45.912 160.075,42.812 160.875,42.812 160.875,41.812 174.875,41.812" style="fill:none;stroke-width:0.050000mm;stroke:black"/>
<polygon points="251.075,42.812 251.875,42.812 251.875,45.912 251.075,45.912 251.075,51.712 251.875,51.712 251.875,54.812 251.075,54.812 251.075,55.812 237.075,55.812 237.075,54.812 236.275,54.812 236.275,51.712 237.075,51.712 237.075,45.912 236.275,45.912 236.275,42.812 237.075,42.812 237.075,41.812 251.075,41.812" style="fill:none;stroke-width:0.050000mm;stroke:black"/>
<polygon points="79.625,33.287 80.425,33.287 80.425,36.387 79.625,36.387 79.625,42.187 80.425,42.187 80.425,45.287 79.625,45.287 79.625,46.287 65.625,46.287 65.625,45.287 64.825,45.287 64.825,42.187 65.625,42.187 65.625,36.387 64.825,36.387 64.825,33.287 65.625,33.287 65.625,32.287 79.625,32.287" style="fill:none;stroke-width:0.050000mm;stroke:black"/>
<polygon points="117.725,33.287 118.524,33.287 118.524,36.387 117.725,36.387 117.725,42.187 118.524,42.187 118.524,45.287 117.725,45.287 117.725,46.287 103.725,46.287 103.725,45.287 102.925,45.287 102.925,42.187 103.725,42.187 103.725,36.387 102.925,36.387 102.925,33.287 103.725,33.287 103.725,32.287 117.725,32.287" style="fill:none;stroke-width:0.050000mm;stroke:black"/>
<polygon points="193.925,33.287 194.725,33.287 194.725,36.387 193.925,36.387 193.925,42.187 194.725,42.187 194.725,45.287 193.925,45.287 193.925,46.287 179.925,46.287 179.925,45.287 179.125,45.287 179.125,42.187 179.925,42.187 179.925,36.387 179.125,36.387 179.125,33.287 179.925,33.287 179.925,32.287 193.925,32.287" style="fill:none;stroke-width:0.050000mm;stroke:black"/>
<polygon points="232.025,33.287 232.825,33.287 232.825,36.387 232.025,36.387 232.025,42.187 232.825,42.187 232.825,45.287 232.025,45.287 232.025,46.287 218.025,46.287 218.025,45.287 217.225,45.287 217.225,42.187 218.025,42.187 218.025,36.387 217.225,36.387 217.225,33.287 218.025,33.287 218.025,32.287 232.025,32.287" style="fill:none;stroke-width:0.050000mm;stroke:black"/>
<polygon points="98.675,28.525 99.475,28.525 99.475,31.625 98.675,31.625 98.675,37.425 99.475,37.425 99.475,40.525 98.675,40.525 98.675,41.525 84.675,41.525 84.675,40.525 83.875,40.525 83.875,37.425 84.675,37.425 84.675,31.625 83.875,31.625 83.875,28.525 84.675,28.525 84.675,27.525 98.675,27.525" style="fill:none;stroke-width:0.050000mm;stroke:black"/>
<polygon points="212.975,28.525 213.775,28.525 213.775,31.625 212.975,31.625 212.975,37.425 213.775,37.425 213.775,40.525 212.975,40.525 212.975,41.525 198.975,41.525 198.975,40.525 198.175,40.525 198.175,37.425 198.975,37.425 198.975,31.625 198.175,31.625 198.175,28.525 198.975,28.525 198.975,27.525 212.975,27.525" style="fill:none;stroke-width:0.050000mm;stroke:black"/>
<polygon points="42.824,181.900 42.824,134.800 63.574,134.800 63.574,181.900" style="fill:none;stroke-width:0.050000mm;stroke:black"/>
<polygon points="80.925,181.900 80.925,134.800 120.725,134.800 120.725,181.900" style="fill:none;stroke-width:0.050000mm;stroke:black"/>
<polygon points="176.175,181.900 176.175,134.800 215.975,134.800 215.975,181.900" style="fill:none;stroke-width:0.050000mm;stroke:black"/>
<polygon points="233.325,181.900 233.325,134.800 254.075,134.800 254.075,181.900" style="fill:none;stroke-width:0.050000mm;stroke:black"/>

<polygon points="53.297,138.554 53.395,138.565 53.491,138.585 53.585,138.611 53.677,138.645 53.766,138.686 53.852,138.734 53.934,138.789 54.011,138.849 54.083,138.916 54.150,138.988 54.210,139.065 54.265,139.147 54.313,139.233 54.354,139.322 54.388,139.414 54.414,139.508 54.434,139.604 54.445,139.702 54.449,139.800 54.445,139.898 54.434,139.996 54.414,140.092 54.388,140.186 54.354,140.278 54.313,140.367 54.265,140.453 54.210,140.535 54.150,140.612 54.083,140.684 54.011,140.751 53.934,140.811 53.852,140.866 53.766,140.914 53.677,140.955 53.585,140.989 53.491,141.015 53.395,141.035 53.297,141.046 53.199,141.050 53.101,141.046 53.003,141.035 52.907,141.015 52.813,140.989 52.721,140.955 52.632,140.914 52.546,140.866 52.464,140.811 52.387,140.751 52.315,140.684 52.248,140.612 52.188,140.535 52.133,140.453 52.085,140.367 52.044,140.278 52.010,140.186 51.984,140.092 51.964,139.996 51.953,139.898 51.949,139.800 51.953,139.702 51.964,139.604 51.984,139.508 52.010,139.414 52.044,139.322 52.085,139.233 52.133,139.147 52.188,139.065 52.248,138.988 52.315,138.916 52.387,138.849 52.464,138.789 52.546,138.734 52.632,138.686 52.721,138.645 52.813,138.611 52.907,138.585 53.003,138.565 53.101,138.554 53.199,138.550" style="fill:none;stroke-width:0.050000mm;stroke:black"/>
<polygon points="53.297,175.654 53.395,175.665 53.491,175.685 53.585,175.711 53.677,175.745 53.766,175.786 53.852,175.834 53.934,175.889 54.011,175.949 54.083,176.016 54.150,176.088 54.210,176.165 54.265,176.247 54.313,176.333 54.354,176.422 54.388,176.514 54.414,176.608 54.434,176.704 54.445,176.802 54.449,176.900 54.445,176.998 54.434,177.096 54.414,177.192 54.388,177.286 54.354,177.378 54.313,177.467 54.265,177.553 54.210,177.635 54.150,177.712 54.083,177.784 54.011,177.851 53.934,177.911 53.852,177.966 53.766,178.014 53.677,178.055 53.585,178.089 53.491,178.115 53.395,178.135 53.297,178.146 53.199,178.150 53.101,178.146 53.003,178.135 52.907,178.115 52.813,178.089 52.721,178.055 52.632,178.014 52.546,177.966 52.464,177.911 52.387,177.851 52.315,177.784 52.248,177.712 52.188,177.635 52.133,177.553 52.085,177.467 52.044,177.378 52.010,177.286 51.984,177.192 51.964,177.096 51.953,176.998 51.949,176.900 51.953,176.802 51.964,176.704 51.984,176.608 52.010,176.514 52.044,176.422 52.085,176.333 52.133,176.247 52.188,176.165 52.248,176.088 52.315,176.016 52.387,175.949 52.464,175.889 52.546,175.834 52.632,175.786 52.721,175.745 52.813,175.711 52.907,175.685 53.003,175.665 53.101,175.654 53.199,175.650" style="fill:none;stroke-width:0.050000mm;stroke:black"/>
<polygon points="100.923,138.554 101.021,138.565 101.117,138.585 101.211,138.611 101.303,138.645 101.392,138.686 101.478,138.734 101.560,138.789 101.637,138.849 101.709,138.916 101.776,138.988 101.836,139.065 101.891,139.147 101.939,139.233 101.980,139.322 102.014,139.414 102.040,139.508 102.060,139.604 102.071,139.702 102.075,139.800 102.071,139.898 102.060,139.996 102.040,140.092 102.014,140.186 101.980,140.278 101.939,140.367 101.891,140.453 101.836,140.535 101.776,140.612 101.709,140.684 101.637,140.751 101.560,140.811 101.478,140.866 101.392,140.914 101.303,140.955 101.211,140.989 101.117,141.015 101.021,141.035 100.923,141.046 100.825,141.050 100.727,141.046 100.629,141.035 100.533,141.015 100.439,140.989 100.347,140.955 100.258,140.914 100.172,140.866 100.090,140.811 100.013,140.751 99.941,140.684 99.874,140.612 99.814,140.535 99.759,140.453 99.711,140.367 99.670,140.278 99.636,140.186 99.610,140.092 99.590,139.996 99.579,139.898 99.575,139.800 99.579,139.702 99.590,139.604 99.610,139.508 99.636,139.414 99.670,139.322 99.711,139.233 99.759,139.147 99.814,139.065 99.874,138.988 99.941,138.916 100.013,138.849 100.090,138.789 100.172,138.734 100.258,138.686 100.347,138.645 100.439,138.611 100.533,138.585 100.629,138.565 100.727,138.554 100.825,138.550" style="fill:none;stroke-width:0.050000mm;stroke:black"/>
<polygon points="100.923,175.654 101.021,175.665 101.117,175.685 101.211,175.711 101.303,175.745 101.392,175.786 101.478,175.834 101.560,175.889 101.637,175.949 101.709,176.016 101.776,176.088 101.836,176.165 101.891,176.247 101.939,176.333 101.980,176.422 102.014,176.514 102.040,176.608 102.060,176.704 102.071,176.802 102.075,176.900 102.071,176.998 102.060,177.096 102.040,177.192 102.014,177.286 101.980,177.378 101.939,177.467 101.891,177.553 101.836,177.635 101.776,177.712 101.709,177.784 101.637,177.851 101.560,177.911 101.478,177.966 101.392,178.014 101.303,178.055 101.211,178.089 101.117,178.115 101.021,178.135 100.923,178.146 100.825,178.150 100.727,178.146 100.629,178.135 100.533,178.115 100.439,178.089 100.347,178.055 100.258,178.014 100.172,177.966 100.090,177.911 100.013,177.851 99.941,177.784 99.874,177.712 99.814,177.635 99.759,177.553 99.711,177.467 99.670,177.378 99.636,177.286 99.610,177.192 99.590,177.096 99.579,176.998 99.575,176.900 99.579,176.802 99.590,176.704 99.610,176.608 99.636,176.514 99.670,176.422 99.711,176.333 99.759,176.247 99.814,176.165 99.874,176.088 99.941,176.016 100.013,175.949 100.090,175.889 100.172,175.834 100.258,175.786 100.347,175.745 100.439,175.711 100.533,175.685 100.629,175.665 100.727,175.654 100.825,175.650" style="fill:none;stroke-width:0.050000mm;stroke:black"/>
<polygon points="196.173,138.554 196.271,138.565 196.367,138.585 196.461,138.611 196.553,138.645 196.642,138.686 196.728,138.734 196.810,138.789 196.887,138.849 196.959,138.916 197.026,138.988 197.086,139.065 197.141,139.147 197.189,139.233 197.230,139.322 197.264,139.414 197.290,139.508 197.310,139.604 197.321,139.702 197.325,139.800 197.321,139.898 197.310,139.996 197.290,140.092 197.264,140.186 197.230,140.278 197.189,140.367 197.141,140.453 197.086,140.535 197.026,140.612 196.959,140.684 196.887,140.751 196.810,140.811 196.728,140.866 196.642,140.914 196.553,140.955 196.461,140.989 196.367,141.015 196.271,141.035 196.173,141.046 196.075,141.050 195.977,141.046 195.879,141.035 195.783,141.015 195.689,140.989 195.597,140.955 195.508,140.914 195.422,140.866 195.340,140.811 195.263,140.751 195.191,140.684 195.124,140.612 195.064,140.535 195.009,140.453 194.961,140.367 194.920,140.278 194.886,140.186 194.860,140.092 194.840,139.996 194.829,139.898 194.825,139.800 194.829,139.702 194.840,139.604 194.860,139.508 194.886,139.414 194.920,139.322 194.961,139.233 195.009,139.147 195.064,139.065 195.124,138.988 195.191,138.916 195.263,138.849 195.340,138.789 195.422,138.734 195.508,138.686 195.597,138.645 195.689,138.611 195.783,138.585 195.879,138.565 195.977,138.554 196.075,138.550" style="fill:none;stroke-width:0.050000mm;stroke:black"/>
<polygon points="196.173,175.654 196.271,175.665 196.367,175.685 196.461,175.711 196.553,175.745 196.642,175.786 196.728,175.834 196.810,175.889 196.887,175.949 196.959,176.016 197.026,176.088 197.086,176.165 197.141,176.247 197.189,176.333 197.230,176.422 197.264,176.514 197.290,176.608 197.310,176.704 197.321,176.802 197.325,176.900 197.321,176.998 197.310,177.096 197.290,177.192 197.264,177.286 197.230,177.378 197.189,177.467 197.141,177.553 197.086,177.635 197.026,177.712 196.959,177.784 196.887,177.851 196.810,177.911 196.728,177.966 196.642,178.014 196.553,178.055 196.461,178.089 196.367,178.115 196.271,178.135 196.173,178.146 196.075,178.150 195.977,178.146 195.879,178.135 195.783,178.115 195.689,178.089 195.597,178.055 195.508,178.014 195.422,177.966 195.340,177.911 195.263,177.851 195.191,177.784 195.124,177.712 195.064,177.635 195.009,177.553 194.961,177.467 194.920,177.378 194.886,177.286 194.860,177.192 194.840,177.096 194.829,176.998 194.825,176.900 194.829,176.802 194.840,176.704 194.860,176.608 194.886,176.514 194.920,176.422 194.961,176.333 195.009,176.247 195.064,176.165 195.124,176.088 195.191,176.016 195.263,175.949 195.340,175.889 195.422,175.834 195.508,175.786 195.597,175.745 195.689,175.711 195.783,175.685 195.879,175.665 195.977,175.654 196.075,175.650" style="fill:none;stroke-width:0.050000mm;stroke:black"/>
<polygon points="243.798,138.554 243.896,138.565 243.992,138.585 244.086,138.611 244.178,138.645 244.267,138.686 244.353,138.734 244.435,138.789 244.512,138.849 244.584,138.916 244.651,138.988 244.711,139.065 244.766,139.147 244.814,139.233 244.855,139.322 244.889,139.414 244.915,139.508 244.935,139.604 244.946,139.702 244.950,139.800 244.946,139.898 244.935,139.996 244.915,140.092 244.889,140.186 244.855,140.278 244.814,140.367 244.766,140.453 244.711,140.535 244.651,140.612 244.584,140.684 244.512,140.751 244.435,140.811 244.353,140.866 244.267,140.914 244.178,140.955 244.086,140.989 243.992,141.015 243.896,141.035 243.798,141.046 243.700,141.050 243.602,141.046 243.504,141.035 243.408,141.015 243.314,140.989 243.222,140.955 243.133,140.914 243.047,140.866 242.965,140.811 242.888,140.751 242.816,140.684 242.749,140.612 242.689,140.535 242.634,140.453 242.586,140.367 242.545,140.278 242.511,140.186 242.485,140.092 242.465,139.996 242.454,139.898 242.450,139.800 242.454,139.702 242.465,139.604 242.485,139.508 242.511,139.414 242.545,139.322 242.586,139.233 242.634,139.147 242.689,139.065 242.749,138.988 242.816,138.916 242.888,138.849 242.965,138.789 243.047,138.734 243.133,138.686 243.222,138.645 243.314,138.611 243.408,138.585 243.504,138.565 243.602,138.554 243.700,138.550" style="fill:none;stroke-width:0.050000mm;stroke:black"/>
<polygon points="243.798,175.654 243.896,175.665 243.992,175.685 244.086,175.711 244.178,175.745 244.267,175.786 244.353,175.834 244.435,175.889 244.512,175.949 244.584,176.016 244.651,176.088 244.711,176.165 244.766,176.247 244.814,176.333 244.855,176.422 244.889,176.514 244.915,176.608 244.935,176.704 244.946,176.802 244.950,176.900 244.946,176.998 244.935,177.096 244.915,177.192 244.889,177.286 244.855,177.378 244.814,177.467 244.766,177.553 244.711,177.635 244.651,177.712 244.584,177.784 244.512,177.851 244.435,177.911 244.353,177.966 244.267,178.014 244.178,178.055 244.086,178.089 243.992,178.115 243.896,178.135 243.798,178.146 243.700,178.150 243.602,178.146 243.504,178.135 243.408,178.115 243.314,178.089 243.222,178.055 243.133,178.014 243.047,177.966 242.965,177.911 242.888,177.851 242.816,177.784 242.749,177.712 242.689,177.635 242.634,177.553 242.586,177.467 242.545,177.378 242.511,177.286 242.485,177.192 242.465,177.096 242.454,176.998 242.450,176.900 242.454,176.802 242.465,176.704 242.485,176.608 242.511,176.514 242.545,176.422 242.586,176.333 242.634,176.247 242.689,176.165 242.749,176.088 242.816,176.016 242.888,175.949 242.965,175.889 243.047,175.834 243.133,175.786 243.222,175.745 243.314,175.711 243.408,175.685 243.504,175.665 243.602,175.654 243.700,175.650" style="fill:none;stroke-width:0.050000mm;stroke:black"/>
<polygon points="30.873,29.529 30.971,29.540 31.067,29.560 31.161,29.586 31.253,29.620 31.342,29.661 31.428,29.709 31.510,29.764 31.587,29.824 31.659,29.891 31.726,29.963 31.786,30.040 31.841,30.122 31.889,30.208 31.930,30.297 31.964,30.389 31.990,30.483 32.010,30.579 32.021,30.677 32.025,30.775 32.021,30.873 32.010,30.971 31.990,31.067 31.964,31.161 31.930,31.253 31.889,31.342 31.841,31.428 31.786,31.510 31.726,31.587 31.659,31.659 31.587,31.726 31.510,31.786 31.428,31.841 31.342,31.889 31.253,31.930 31.161,31.964 31.067,31.990 30.971,32.010 30.873,32.021 30.775,32.025 30.677,32.021 30.579,32.010 30.483,31.990 30.389,31.964 30.297,31.930 30.208,31.889 30.122,31.841 30.040,31.786 29.963,31.726 29.891,31.659 29.824,31.587 29.764,31.510 29.709,31.428 29.661,31.342 29.620,31.253 29.586,31.161 29.560,31.067 29.540,30.971 29.529,30.873 29.525,30.775 29.529,30.677 29.540,30.579 29.560,30.483 29.586,30.389 29.620,30.297 29.661,30.208 29.709,30.122 29.764,30.040 29.824,29.963 29.891,29.891 29.963,29.824 30.040,29.764 30.122,29.709 30.208,29.661 30.297,29.620 30.389,29.586 30.483,29.560 30.579,29.540 30.677,29.529 30.775,29.525" style="fill:none;stroke-width:0.050000mm;stroke:black"/>
<polygon points="30.873,108.466 30.971,108.477 31.067,108.497 31.161,108.523 31.253,108.557 31.342,108.598 31.428,108.646 31.510,108.701 31.587,108.761 31.659,108.828 31.726,108.900 31.786,108.977 31.841,109.059 31.889,109.145 31.930,109.234 31.964,109.326 31.990,109.420 32.010,109.516 32.021,109.614 32.025,109.712 32.021,109.810 32.010,109.908 31.990,110.004 31.964,110.098 31.930,110.190 31.889,110.279 31.841,110.365 31.786,110.447 31.726,110.524 31.659,110.596 31.587,110.663 31.510,110.723 31.428,110.778 31.342,110.826 31.253,110.867 31.161,110.901 31.067,110.927 30.971,110.947 30.873,110.958 30.775,110.962 30.677,110.958 30.579,110.947 30.483,110.927 30.389,110.901 30.297,110.867 30.208,110.826 30.122,110.778 30.040,110.723 29.963,110.663 29.891,110.596 29.824,110.524 29.764,110.447 29.709,110.365 29.661,110.279 29.620,110.190 29.586,110.098 29.560,110.004 29.540,109.908 29.529,109.810 29.525,109.712 29.529,109.614 29.540,109.516 29.560,109.420 29.586,109.326 29.620,109.234 29.661,109.145 29.709,109.059 29.764,108.977 29.824,108.900 29.891,108.828 29.963,108.761 30.040,108.701 30.122,108.646 30.208,108.598 30.297,108.557 30.389,108.523 30.483,108.497 30.579,108.477 30.677,108.466 30.775,108.462" style="fill:none;stroke-width:0.050000mm;stroke:black"/>
<polygon points="133.623,29.529 133.721,29.540 133.817,29.560 133.911,29.586 134.003,29.620 134.092,29.661 134.178,29.709 134.260,29.764 134.337,29.824 134.409,29.891 134.476,29.963 134.536,30.040 134.591,30.122 134.639,30.208 134.680,30.297 134.714,30.389 134.740,30.483 134.760,30.579 134.771,30.677 134.775,30.775 134.771,30.873 134.760,30.971 134.740,31.067 134.714,31.161 134.680,31.253 134.639,31.342 134.591,31.428 134.536,31.510 134.476,31.587 134.409,31.659 134.337,31.726 134.260,31.786 134.178,31.841 134.092,31.889 134.003,31.930 133.911,31.964 133.817,31.990 133.721,32.010 133.623,32.021 133.525,32.025 133.427,32.021 133.329,32.010 133.233,31.990 133.139,31.964 133.047,31.930 132.958,31.889 132.872,31.841 132.790,31.786 132.713,31.726 132.641,31.659 132.574,31.587 132.514,31.510 132.459,31.428 132.411,31.342 132.370,31.253 132.336,31.161 132.310,31.067 132.290,30.971 132.279,30.873 132.275,30.775 132.279,30.677 132.290,30.579 132.310,30.483 132.336,30.389 132.370,30.297 132.411,30.208 132.459,30.122 132.514,30.040 132.574,29.963 132.641,29.891 132.713,29.824 132.790,29.764 132.872,29.709 132.958,29.661 133.047,29.620 133.139,29.586 133.233,29.560 133.329,29.540 133.427,29.529 133.525,29.525" style="fill:none;stroke-width:0.050000mm;stroke:black"/>
<polygon points="114.573,108.466 114.671,108.477 114.767,108.497 114.861,108.523 114.953,108.557 115.042,108.598 115.128,108.646 115.210,108.701 115.287,108.761 115.359,108.828 115.426,108.900 115.486,108.977 115.541,109.059 115.589,109.145 115.630,109.234 115.664,109.326 115.690,109.420 115.710,109.516 115.721,109.614 115.725,109.712 115.721,109.810 115.710,109.908 115.690,110.004 115.664,110.098 115.630,110.190 115.589,110.279 115.541,110.365 115.486,110.447 115.426,110.524 115.359,110.596 115.287,110.663 115.210,110.723 115.128,110.778 115.042,110.826 114.953,110.867 114.861,110.901 114.767,110.927 114.671,110.947 114.573,110.958 114.475,110.962 114.377,110.958 114.279,110.947 114.183,110.927 114.089,110.901 113.997,110.867 113.908,110.826 113.822,110.778 113.740,110.723 113.663,110.663 113.591,110.596 113.524,110.524 113.464,110.447 113.409,110.365 113.361,110.279 113.320,110.190 113.286,110.098 113.260,110.004 113.240,109.908 113.229,109.810 113.225,109.712 113.229,109.614 113.240,109.516 113.260,109.420 113.286,109.326 113.320,109.234 113.361,109.145 113.409,109.059 113.464,108.977 113.524,108.900 113.591,108.828 113.663,108.761 113.740,108.701 113.822,108.646 113.908,108.598 113.997,108.557 114.089,108.523 114.183,108.497 114.279,108.477 114.377,108.466 114.475,108.462" style="fill:none;stroke-width:0.050000mm;stroke:black"/>
<polygon points="164.173,29.529 164.271,29.540 164.367,29.560 164.461,29.586 164.553,29.620 164.642,29.661 164.728,29.709 164.810,29.764 164.887,29.824 164.959,29.891 165.026,29.963 165.086,30.040 165.141,30.122 165.189,30.208 165.230,30.297 165.264,30.389 165.290,30.483 165.310,30.579 165.321,30.677 165.325,30.775 165.321,30.873 165.310,30.971 165.290,31.067 165.264,31.161 165.230,31.253 165.189,31.342 165.141,31.428 165.086,31.510 165.026,31.587 164.959,31.659 164.887,31.726 164.810,31.786 164.728,31.841 164.642,31.889 164.553,31.930 164.461,31.964 164.367,31.990 164.271,32.010 164.173,32.021 164.075,32.025 163.977,32.021 163.879,32.010 163.783,31.990 163.689,31.964 163.597,31.930 163.508,31.889 163.422,31.841 163.340,31.786 163.263,31.726 163.191,31.659 163.124,31.587 163.064,31.510 163.009,31.428 162.961,31.342 162.920,31.253 162.886,31.161 162.860,31.067 162.840,30.971 162.829,30.873 162.825,30.775 162.829,30.677 162.840,30.579 162.860,30.483 162.886,30.389 162.920,30.297 162.961,30.208 163.009,30.122 163.064,30.040 163.124,29.963 163.191,29.891 163.263,29.824 163.340,29.764 163.422,29.709 163.508,29.661 163.597,29.620 163.689,29.586 163.783,29.560 163.879,29.540 163.977,29.529 164.075,29.525" style="fill:none;stroke-width:0.050000mm;stroke:black"/>
<polygon points="267.373,29.529 267.471,29.540 267.567,29.560 267.661,29.586 267.753,29.620 267.842,29.661 267.928,29.709 268.010,29.764 268.087,29.824 268.159,29.891 268.226,29.963 268.286,30.040 268.341,30.122 268.389,30.208 268.430,30.297 268.464,30.389 268.490,30.483 268.510,30.579 268.521,30.677 268.525,30.775 268.521,30.873 268.510,30.971 268.490,31.067 268.464,31.161 268.430,31.253 268.389,31.342 268.341,31.428 268.286,31.510 268.226,31.587 268.159,31.659 268.087,31.726 268.010,31.786 267.928,31.841 267.842,31.889 267.753,31.930 267.661,31.964 267.567,31.990 267.471,32.010 267.373,32.021 267.275,32.025 267.177,32.021 267.079,32.010 266.983,31.990 266.889,31.964 266.797,31.930 266.708,31.889 266.622,31.841 266.540,31.786 266.463,31.726 266.391,31.659 266.324,31.587 266.264,31.510 266.209,31.428 266.161,31.342 266.120,31.253 266.086,31.161 266.060,31.067 266.040,30.971 266.029,30.873 266.025,30.775 266.029,30.677 266.040,30.579 266.060,30.483 266.086,30.389 266.120,30.297 266.161,30.208 266.209,30.122 266.264,30.040 266.324,29.963 266.391,29.891 266.463,29.824 266.540,29.764 266.622,29.709 266.708,29.661 266.797,29.620 266.889,29.586 266.983,29.560 267.079,29.540 267.177,29.529 267.275,29.525" style="fill:none;stroke-width:0.050000mm;stroke:black"/>
<polygon points="267.373,108.466 267.471,108.477 267.567,108.497 267.661,108.523 267.753,108.557 267.842,108.598 267.928,108.646 268.010,108.701 268.087,108.761 268.159,108.828 268.226,108.900 268.286,108.977 268.341,109.059 268.389,109.145 268.430,109.234 268.464,109.326 268.490,109.420 268.510,109.516 268.521,109.614 268.525,109.712 268.521,109.810 268.510,109.908 268.490,110.004 268.464,110.098 268.430,110.190 268.389,110.279 268.341,110.365 268.286,110.447 268.226,110.524 268.159,110.596 268.087,110.663 268.010,110.723 267.928,110.778 267.842,110.826 267.753,110.867 267.661,110.901 267.567,110.927 267.471,110.947 267.373,110.958 267.275,110.962 267.177,110.958 267.079,110.947 266.983,110.927 266.889,110.901 266.797,110.867 266.708,110.826 266.622,110.778 266.540,110.723 266.463,110.663 266.391,110.596 266.324,110.524 266.264,110.447 266.209,110.365 266.161,110.279 266.120,110.190 266.086,110.098 266.060,110.004 266.040,109.908 266.029,109.810 266.025,109.712 266.029,109.614 266.040,109.516 266.060,109.420 266.086,109.326 266.120,109.234 266.161,109.145 266.209,109.059 266.264,108.977 266.324,108.900 266.391,108.828 266.463,108.761 266.540,108.701 266.622,108.646 266.708,108.598 266.797,108.557 266.889,108.523 266.983,108.497 267.079,108.477 267.177,108.466 267.275,108.462" style="fill:none;stroke-width:0.050000mm;stroke:black"/>
<polygon points="183.273,108.466 183.371,108.477 183.467,108.497 183.561,108.523 183.653,108.557 183.742,108.598 183.828,108.646 183.910,108.701 183.987,108.761 184.059,108.828 184.126,108.900 184.186,108.977 184.241,109.059 184.289,109.145 184.330,109.234 184.364,109.326 184.390,109.420 184.410,109.516 184.421,109.614 184.425,109.712 184.421,109.810 184.410,109.908 184.390,110.004 184.364,110.098 184.330,110.190 184.289,110.279 184.241,110.365 184.186,110.447 184.126,110.524 184.059,110.596 183.987,110.663 183.910,110.723 183.828,110.778 183.742,110.826 183.653,110.867 183.561,110.901 183.467,110.927 183.371,110.947 183.273,110.958 183.175,110.962 183.077,110.958 182.979,110.947 182.883,110.927 182.789,110.901 182.697,110.867 182.608,110.826 182.522,110.778 182.440,110.723 182.363,110.663 182.291,110.596 182.224,110.524 182.164,110.447 182.109,110.365 182.061,110.279 182.020,110.190 181.986,110.098 181.960,110.004 181.940,109.908 181.929,109.810 181.925,109.712 181.929,109.614 181.940,109.516 181.960,109.420 181.986,109.326 182.020,109.234 182.061,109.145 182.109,109.059 182.164,108.977 182.224,108.900 182.291,108.828 182.363,108.761 182.440,108.701 182.522,108.646 182.608,108.598 182.697,108.557 182.789,108.523 182.883,108.497 182.979,108.477 183.077,108.466 183.175,108.462" style="fill:none;stroke-width:0.050000mm;stroke:black"/>
</svg>
