solid OpenSCAD_Model
  facet normal -0 0 1
    outer loop
      vertex 115.094 53.337 40
      vertex 115.7 0 40
      vertex 115.7 53.337 40
    endloop
  endfacet
  facet normal 0 0 1
    outer loop
      vertex 115.7 0 40
      vertex 115.094 53.337 40
      vertex 115.094 0 40
    endloop
  endfacet
  facet normal 1 -0 0
    outer loop
      vertex 13 1 28.8457
      vertex 13 10 3
      vertex 13 10 28.8457
    endloop
  endfacet
  facet normal 1 0 0
    outer loop
      vertex 13 10 3
      vertex 13 1 28.8457
      vertex 13 1 3
    endloop
  endfacet
  facet normal 0 1 -0
    outer loop
      vertex 13 10 3
      vertex 1 10 27.6035
      vertex 13 10 28.8457
    endloop
  endfacet
  facet normal 0 1 0
    outer loop
      vertex 1 10 27.6035
      vertex 13 10 3
      vertex 1 10 3
    endloop
  endfacet
  facet normal 0 0 -1
    outer loop
      vertex 117.7 -2 0
      vertex 98.6 55.337 0
      vertex 117.7 55.337 0
    endloop
  endfacet
  facet normal 0 0 -1
    outer loop
      vertex -2 102.437 0
      vertex 98.6 55.337 0
      vertex -2 -2 0
    endloop
  endfacet
  facet normal 0 0 -1
    outer loop
      vertex -2 -2 0
      vertex 98.6 55.337 0
      vertex 117.7 -2 0
    endloop
  endfacet
  facet normal 0 0 -1
    outer loop
      vertex 98.6 55.337 0
      vertex -2 102.437 0
      vertex 98.6 91.437 0
    endloop
  endfacet
  facet normal 0 0 -1
    outer loop
      vertex 98.6 91.437 0
      vertex -2 102.437 0
      vertex 98.6 102.437 0
    endloop
  endfacet
  facet normal 0 1 -0
    outer loop
      vertex 115.7 0 40
      vertex 115.108 0 40.9155
      vertex 115.7 0 40.9768
    endloop
  endfacet
  facet normal 0 1 0
    outer loop
      vertex 115.108 0 40.9155
      vertex 115.7 0 40
      vertex 115.094 0 40
    endloop
  endfacet
  facet normal 0 1 -0
    outer loop
      vertex 115.094 0 40
      vertex -0.153628 0 28.9841
      vertex 115.108 0 40.9155
    endloop
  endfacet
  facet normal 0 1 -0
    outer loop
      vertex 115.085 0 39.4132
      vertex -0.153628 0 28.9841
      vertex 115.094 0 40
    endloop
  endfacet
  facet normal -0 1 0
    outer loop
      vertex -0.153628 0 28.9841
      vertex 115.085 0 39.4132
      vertex 0 0 27.5
    endloop
  endfacet
  facet normal -1 0 0
    outer loop
      vertex 102.7 1 3
      vertex 102.7 10 38.1311
      vertex 102.7 10 3
    endloop
  endfacet
  facet normal -1 -0 0
    outer loop
      vertex 102.7 10 38.1311
      vertex 102.7 1 3
      vertex 102.7 1 38.1311
    endloop
  endfacet
  facet normal 0 1 -0
    outer loop
      vertex 114.7 10 3
      vertex 102.7 10 38.1311
      vertex 114.7 10 39.3733
    endloop
  endfacet
  facet normal 0 1 0
    outer loop
      vertex 102.7 10 38.1311
      vertex 114.7 10 3
      vertex 102.7 10 3
    endloop
  endfacet
  facet normal 1 -0 0
    outer loop
      vertex 13 81.437 28.8457
      vertex 13 90.437 3
      vertex 13 90.437 28.8457
    endloop
  endfacet
  facet normal 1 0 0
    outer loop
      vertex 13 90.437 3
      vertex 13 81.437 28.8457
      vertex 13 81.437 3
    endloop
  endfacet
  facet normal 0 -1 0
    outer loop
      vertex 13 81.437 3
      vertex 1 81.437 27.6035
      vertex 1 81.437 3
    endloop
  endfacet
  facet normal 0 -1 0
    outer loop
      vertex 1 81.437 27.6035
      vertex 13 81.437 3
      vertex 13 81.437 28.8457
    endloop
  endfacet
  facet normal -1 0 0
    outer loop
      vertex 83.6 81.437 3
      vertex 83.6 90.437 36.154
      vertex 83.6 90.437 3
    endloop
  endfacet
  facet normal -1 -0 0
    outer loop
      vertex 83.6 90.437 36.154
      vertex 83.6 81.437 3
      vertex 83.6 81.437 36.154
    endloop
  endfacet
  facet normal 0 -1 0
    outer loop
      vertex 83.6 81.437 36.154
      vertex 91.2432 81.437 17.3
      vertex 91.2432 81.437 36.9452
    endloop
  endfacet
  facet normal 0 -1 0
    outer loop
      vertex 83.6 81.437 3
      vertex 91.2432 81.437 17.3
      vertex 83.6 81.437 36.154
    endloop
  endfacet
  facet normal 0 -1 0
    outer loop
      vertex 95.6 81.437 3
      vertex 91.2432 81.437 17.3
      vertex 83.6 81.437 3
    endloop
  endfacet
  facet normal 0 -1 0
    outer loop
      vertex 91.2432 81.437 17.3
      vertex 95.6 81.437 3
      vertex 95.6 81.437 17.3
    endloop
  endfacet
  facet normal 0 0 1
    outer loop
      vertex 83.6 90.437 3
      vertex 13 90.437 3
      vertex 83.6 81.437 3
    endloop
  endfacet
  facet normal 0 0 1
    outer loop
      vertex 95.6 81.437 3
      vertex 83.6 81.437 3
      vertex 95.6 52.337 3
    endloop
  endfacet
  facet normal 0 0 1
    outer loop
      vertex 114.7 52.337 3
      vertex 102.7 10 3
      vertex 114.7 10 3
    endloop
  endfacet
  facet normal -0 0 1
    outer loop
      vertex 95.6 52.337 3
      vertex 102.7 10 3
      vertex 114.7 52.337 3
    endloop
  endfacet
  facet normal 0 0 1
    outer loop
      vertex 13 10 3
      vertex 102.7 10 3
      vertex 95.6 52.337 3
    endloop
  endfacet
  facet normal -0 0 1
    outer loop
      vertex 13 81.437 3
      vertex 95.6 52.337 3
      vertex 83.6 81.437 3
    endloop
  endfacet
  facet normal 0 0 1
    outer loop
      vertex 13 81.437 3
      vertex 83.6 81.437 3
      vertex 13 90.437 3
    endloop
  endfacet
  facet normal 0 0 1
    outer loop
      vertex 95.6 52.337 3
      vertex 13 81.437 3
      vertex 13 10 3
    endloop
  endfacet
  facet normal 0 0 1
    outer loop
      vertex 102.7 10 3
      vertex 13 10 3
      vertex 102.7 1 3
    endloop
  endfacet
  facet normal 0 0 1
    outer loop
      vertex 102.7 1 3
      vertex 13 10 3
      vertex 13 1 3
    endloop
  endfacet
  facet normal -0 0 1
    outer loop
      vertex 1 81.437 3
      vertex 13 10 3
      vertex 13 81.437 3
    endloop
  endfacet
  facet normal 0 0 1
    outer loop
      vertex 13 10 3
      vertex 1 81.437 3
      vertex 1 10 3
    endloop
  endfacet
  facet normal 0 -1 0
    outer loop
      vertex 115.7 53.337 40
      vertex 115.108 53.337 40.9155
      vertex 115.094 53.337 40
    endloop
  endfacet
  facet normal 0 -1 0
    outer loop
      vertex 115.108 53.337 40.9155
      vertex 115.7 53.337 40
      vertex 115.7 53.337 40.9768
    endloop
  endfacet
  facet normal 0 -1 0
    outer loop
      vertex 96.1047 53.337 38.9484
      vertex 115.094 53.337 40
      vertex 115.108 53.337 40.9155
    endloop
  endfacet
  facet normal 0 -1 0
    outer loop
      vertex 96.1047 53.337 38.9484
      vertex 115.085 53.337 39.4132
      vertex 115.094 53.337 40
    endloop
  endfacet
  facet normal 0 -1 0
    outer loop
      vertex 96.0865 53.337 37.4465
      vertex 115.085 53.337 39.4132
      vertex 96.1047 53.337 38.9484
    endloop
  endfacet
  facet normal 0 -1 0
    outer loop
      vertex 115.085 53.337 39.4132
      vertex 96.0865 53.337 37.4465
      vertex 95.6 53.337 37.3962
    endloop
  endfacet
  facet normal 0 -1 0
    outer loop
      vertex -0.153628 91.437 28.9841
      vertex 95.59 91.437 38
      vertex 96.1047 91.437 38.9484
    endloop
  endfacet
  facet normal 0 -1 0
    outer loop
      vertex -0.153628 91.437 28.9841
      vertex 95.59 91.437 37.3951
      vertex 95.59 91.437 38
    endloop
  endfacet
  facet normal 0 -1 0
    outer loop
      vertex 95.59 91.437 37.3951
      vertex -0.153628 91.437 28.9841
      vertex 0 91.437 27.5
    endloop
  endfacet
  facet normal 0 -1 0
    outer loop
      vertex 96.1047 91.437 38.9484
      vertex 95.59 91.437 38
      vertex 96.0932 91.437 38
    endloop
  endfacet
  facet normal -1 0 0
    outer loop
      vertex 115.7 0 40
      vertex 115.7 53.337 40.9768
      vertex 115.7 53.337 40
    endloop
  endfacet
  facet normal -1 -0 0
    outer loop
      vertex 115.7 53.337 40.9768
      vertex 115.7 0 40
      vertex 115.7 0 40.9768
    endloop
  endfacet
  facet normal 0 1 0
    outer loop
      vertex 117.7 55.337 41.1839
      vertex 98.69 55.337 38
      vertex 98.6 55.337 39.2067
    endloop
  endfacet
  facet normal 0 1 0
    outer loop
      vertex 117.7 55.337 41.1839
      vertex 98.69 55.337 17.3
      vertex 98.69 55.337 38
    endloop
  endfacet
  facet normal 0 1 -0
    outer loop
      vertex 117.7 55.337 0
      vertex 98.69 55.337 17.3
      vertex 117.7 55.337 41.1839
    endloop
  endfacet
  facet normal 0 1 0
    outer loop
      vertex 98.6 55.337 0
      vertex 98.69 55.337 17.3
      vertex 117.7 55.337 0
    endloop
  endfacet
  facet normal 0 1 0
    outer loop
      vertex 98.69 55.337 17.3
      vertex 98.6 55.337 0
      vertex 98.6 55.337 17.3
    endloop
  endfacet
  facet normal 0 1 0
    outer loop
      vertex 98.6 55.337 39.2067
      vertex 98.69 55.337 38
      vertex 98.6 55.337 38
    endloop
  endfacet
  facet normal 1 -0 0
    outer loop
      vertex 98.6 55.337 17.3
      vertex 98.6 91.437 0
      vertex 98.6 91.437 17.3
    endloop
  endfacet
  facet normal 1 0 0
    outer loop
      vertex 98.6 91.437 0
      vertex 98.6 55.337 17.3
      vertex 98.6 55.337 0
    endloop
  endfacet
  facet normal 1 -0 0
    outer loop
      vertex 98.6 67.337 39.2067
      vertex 98.6 91.437 38
      vertex 98.6 91.437 39.2067
    endloop
  endfacet
  facet normal 1 0 0
    outer loop
      vertex 98.6 55.337 38
      vertex 98.6 67.337 39.2067
      vertex 98.6 55.337 39.2067
    endloop
  endfacet
  facet normal 1 0 0
    outer loop
      vertex 98.6 67.337 39.2067
      vertex 98.6 55.337 38
      vertex 98.6 91.437 38
    endloop
  endfacet
  facet normal -1 0 0
    outer loop
      vertex -2 102.437 0
      vertex -2 67.337 28.793
      vertex -2 102.437 28.793
    endloop
  endfacet
  facet normal -1 0 0
    outer loop
      vertex -2 -2 0
      vertex -2 67.337 28.793
      vertex -2 102.437 0
    endloop
  endfacet
  facet normal -1 -0 0
    outer loop
      vertex -2 67.337 28.793
      vertex -2 -2 0
      vertex -2 -2 28.793
    endloop
  endfacet
  facet normal 0 -1 0
    outer loop
      vertex 117.7 -2 0
      vertex -2 -2 28.793
      vertex -2 -2 0
    endloop
  endfacet
  facet normal 0 -1 0
    outer loop
      vertex -2 -2 28.793
      vertex 117.7 -2 0
      vertex 117.7 -2 41.1839
    endloop
  endfacet
  facet normal 1 -0 0
    outer loop
      vertex 117.7 -2 41.1839
      vertex 117.7 55.337 0
      vertex 117.7 55.337 41.1839
    endloop
  endfacet
  facet normal 1 0 0
    outer loop
      vertex 117.7 55.337 0
      vertex 117.7 -2 41.1839
      vertex 117.7 -2 0
    endloop
  endfacet
  facet normal 1 -0 0
    outer loop
      vertex 1 53.337 27.6035
      vertex 1 81.437 3
      vertex 1 81.437 27.6035
    endloop
  endfacet
  facet normal 1 0 0
    outer loop
      vertex 1 10 3
      vertex 1 53.337 27.6035
      vertex 1 10 27.6035
    endloop
  endfacet
  facet normal 1 0 0
    outer loop
      vertex 1 53.337 27.6035
      vertex 1 10 3
      vertex 1 81.437 3
    endloop
  endfacet
  facet normal 0 -1 0
    outer loop
      vertex 83.6 90.437 3
      vertex 13 90.437 28.8457
      vertex 13 90.437 3
    endloop
  endfacet
  facet normal 0 -1 0
    outer loop
      vertex 13 90.437 28.8457
      vertex 83.6 90.437 3
      vertex 83.6 90.437 36.154
    endloop
  endfacet
  facet normal -1 0 0
    outer loop
      vertex 95.6 81.437 3
      vertex 95.6 53.337 17.3
      vertex 95.6 81.437 17.3
    endloop
  endfacet
  facet normal -1 0 0
    outer loop
      vertex 95.6 52.337 3
      vertex 95.6 53.337 17.3
      vertex 95.6 81.437 3
    endloop
  endfacet
  facet normal -1 0 0
    outer loop
      vertex 95.6 52.337 37.3962
      vertex 95.6 53.337 17.3
      vertex 95.6 52.337 3
    endloop
  endfacet
  facet normal -1 0 0
    outer loop
      vertex 95.6 53.337 17.3
      vertex 95.6 52.337 37.3962
      vertex 95.6 53.337 37.3962
    endloop
  endfacet
  facet normal 0 -1 0
    outer loop
      vertex 114.7 52.337 3
      vertex 95.6 52.337 37.3962
      vertex 95.6 52.337 3
    endloop
  endfacet
  facet normal 0 -1 0
    outer loop
      vertex 95.6 52.337 37.3962
      vertex 114.7 52.337 3
      vertex 114.7 52.337 39.3733
    endloop
  endfacet
  facet normal -1 0 0
    outer loop
      vertex 114.7 10 3
      vertex 114.7 52.337 39.3733
      vertex 114.7 52.337 3
    endloop
  endfacet
  facet normal -1 -0 0
    outer loop
      vertex 114.7 52.337 39.3733
      vertex 114.7 10 3
      vertex 114.7 10 39.3733
    endloop
  endfacet
  facet normal 0 1 -0
    outer loop
      vertex 102.7 1 3
      vertex 13 1 28.8457
      vertex 102.7 1 38.1311
    endloop
  endfacet
  facet normal 0 1 0
    outer loop
      vertex 13 1 28.8457
      vertex 102.7 1 3
      vertex 13 1 3
    endloop
  endfacet
  facet normal 1 0 0
    outer loop
      vertex 98.6 100.437 17.3
      vertex 98.6 102.437 39.2067
      vertex 98.6 100.437 38
    endloop
  endfacet
  facet normal 1 -0 0
    outer loop
      vertex 98.6 91.437 39.2067
      vertex 98.6 100.437 38
      vertex 98.6 102.437 39.2067
    endloop
  endfacet
  facet normal 1 0 0
    outer loop
      vertex 98.6 100.437 38
      vertex 98.6 91.437 39.2067
      vertex 98.6 91.437 38
    endloop
  endfacet
  facet normal 1 0 0
    outer loop
      vertex 98.6 102.437 39.2067
      vertex 98.6 100.437 17.3
      vertex 98.6 102.437 0
    endloop
  endfacet
  facet normal 1 0 0
    outer loop
      vertex 98.6 91.437 0
      vertex 98.6 100.437 17.3
      vertex 98.6 91.437 17.3
    endloop
  endfacet
  facet normal 1 0 0
    outer loop
      vertex 98.6 100.437 17.3
      vertex 98.6 91.437 0
      vertex 98.6 102.437 0
    endloop
  endfacet
  facet normal 0 1 -0
    outer loop
      vertex 98.6 102.437 0
      vertex -2 102.437 28.793
      vertex 98.6 102.437 39.2067
    endloop
  endfacet
  facet normal 0 1 0
    outer loop
      vertex -2 102.437 28.793
      vertex 98.6 102.437 0
      vertex -2 102.437 0
    endloop
  endfacet
  facet normal -0.102966 0 0.994685
    outer loop
      vertex 91.0191 85.9301 36.922
      vertex 95.59 84.5952 37.3951
      vertex 95.59 91.437 37.3951
    endloop
  endfacet
  facet normal -0.102966 -8.33044e-07 0.994685
    outer loop
      vertex 95.59 84.5952 37.3951
      vertex 91.2635 85.5937 36.9473
      vertex 91.35 85.187 36.9562
    endloop
  endfacet
  facet normal -0.102964 7.15086e-06 0.994685
    outer loop
      vertex 95.59 84.5952 37.3951
      vertex 91.0191 85.9301 36.922
      vertex 91.2635 85.5937 36.9473
    endloop
  endfacet
  facet normal -0.102967 3.26028e-07 0.994685
    outer loop
      vertex 95.59 91.437 37.3951
      vertex 90.659 86.1381 36.8847
      vertex 91.0191 85.9301 36.922
    endloop
  endfacet
  facet normal -0.102964 -1.66248e-06 0.994685
    outer loop
      vertex 95.59 91.437 37.3951
      vertex 90.2455 86.1815 36.8419
      vertex 90.659 86.1381 36.8847
    endloop
  endfacet
  facet normal -0.102966 1.53832e-07 0.994685
    outer loop
      vertex 83.6 90.437 36.154
      vertex 90.2455 86.1815 36.8419
      vertex 95.59 91.437 37.3951
    endloop
  endfacet
  facet normal -0.102963 5.52858e-06 0.994685
    outer loop
      vertex 90.2455 86.1815 36.8419
      vertex 83.6 90.437 36.154
      vertex 89.85 86.053 36.8009
    endloop
  endfacet
  facet normal -0.102966 0 0.994685
    outer loop
      vertex 83.6 81.437 36.154
      vertex 89.3718 85.3949 36.7514
      vertex 83.6 90.437 36.154
    endloop
  endfacet
  facet normal -0.102968 -2.10771e-06 0.994685
    outer loop
      vertex 89.541 85.7748 36.769
      vertex 83.6 90.437 36.154
      vertex 89.3718 85.3949 36.7514
    endloop
  endfacet
  facet normal -0.102969 -3.94319e-06 0.994685
    outer loop
      vertex 89.85 86.053 36.8009
      vertex 83.6 90.437 36.154
      vertex 89.541 85.7748 36.769
    endloop
  endfacet
  facet normal -0.102966 -8.35265e-07 0.994685
    outer loop
      vertex 95.59 91.437 37.3951
      vertex 13 90.437 28.8457
      vertex 83.6 90.437 36.154
    endloop
  endfacet
  facet normal -0.102966 0 0.994685
    outer loop
      vertex 13 90.437 28.8457
      vertex 7.25 85.187 28.2505
      vertex 13 81.437 28.8457
    endloop
  endfacet
  facet normal -0.102966 -5.2565e-07 0.994685
    outer loop
      vertex 13 90.437 28.8457
      vertex 7.16354 85.5937 28.2415
      vertex 7.25 85.187 28.2505
    endloop
  endfacet
  facet normal -0.102966 2.32666e-07 0.994685
    outer loop
      vertex 13 90.437 28.8457
      vertex 6.91913 85.9301 28.2162
      vertex 7.16354 85.5937 28.2415
    endloop
  endfacet
  facet normal -0.102968 3.06403e-06 0.994685
    outer loop
      vertex 13 90.437 28.8457
      vertex 6.55902 86.1381 28.179
      vertex 6.91913 85.9301 28.2162
    endloop
  endfacet
  facet normal -0.102966 -8.03498e-07 0.994685
    outer loop
      vertex 13 90.437 28.8457
      vertex 6.14547 86.1815 28.1362
      vertex 6.55902 86.1381 28.179
    endloop
  endfacet
  facet normal -0.102966 -1.36889e-07 0.994685
    outer loop
      vertex 0 91.437 27.5
      vertex 6.14547 86.1815 28.1362
      vertex 13 90.437 28.8457
    endloop
  endfacet
  facet normal -0.102966 0 0.994685
    outer loop
      vertex 5.27185 85.3949 28.0457
      vertex 1 81.437 27.6035
      vertex 5.27185 84.9791 28.0457
    endloop
  endfacet
  facet normal -0.102966 5.26743e-07 0.994685
    outer loop
      vertex 0 91.437 27.5
      vertex 5.27185 85.3949 28.0457
      vertex 5.44098 85.7748 28.0632
    endloop
  endfacet
  facet normal -0.102966 2.70048e-07 0.994685
    outer loop
      vertex 0 91.437 27.5
      vertex 13 90.437 28.8457
      vertex 95.59 91.437 37.3951
    endloop
  endfacet
  facet normal -0.102966 4.52632e-07 0.994685
    outer loop
      vertex 6.14547 86.1815 28.1362
      vertex 0 91.437 27.5
      vertex 5.75 86.053 28.0952
    endloop
  endfacet
  facet normal -0.102966 2.93993e-07 0.994685
    outer loop
      vertex 0 91.437 27.5
      vertex 5.44098 85.7748 28.0632
      vertex 5.75 86.053 28.0952
    endloop
  endfacet
  facet normal -0.102966 -8.4269e-08 0.994685
    outer loop
      vertex 5.27185 85.3949 28.0457
      vertex 0 91.437 27.5
      vertex 1 81.437 27.6035
    endloop
  endfacet
  facet normal -0.102965 0 0.994685
    outer loop
      vertex 0 53.337 27.5
      vertex 1 81.437 27.6035
      vertex 0 91.437 27.5
    endloop
  endfacet
  facet normal -0.102965 0 0.994685
    outer loop
      vertex 1 81.437 27.6035
      vertex 0 53.337 27.5
      vertex 1 53.337 27.6035
    endloop
  endfacet
  facet normal -0.102966 7.8505e-07 0.994685
    outer loop
      vertex 91.2635 84.7803 36.9473
      vertex 95.59 84.5952 37.3951
      vertex 91.35 85.187 36.9562
    endloop
  endfacet
  facet normal -0.102966 -2.03449e-08 0.994685
    outer loop
      vertex 91.2635 84.7803 36.9473
      vertex 91.2432 81.437 36.9452
      vertex 95.59 84.5952 37.3951
    endloop
  endfacet
  facet normal -0.102974 2.98319e-08 0.994684
    outer loop
      vertex 91.0191 84.4439 36.922
      vertex 91.2432 81.437 36.9452
      vertex 91.2635 84.7803 36.9473
    endloop
  endfacet
  facet normal -0.102967 5.43931e-07 0.994685
    outer loop
      vertex 90.659 84.2359 36.8847
      vertex 91.2432 81.437 36.9452
      vertex 91.0191 84.4439 36.922
    endloop
  endfacet
  facet normal -0.102964 1.10691e-06 0.994685
    outer loop
      vertex 90.2455 84.1925 36.8419
      vertex 91.2432 81.437 36.9452
      vertex 90.659 84.2359 36.8847
    endloop
  endfacet
  facet normal -0.10296 2.64712e-06 0.994685
    outer loop
      vertex 89.85 84.321 36.8009
      vertex 91.2432 81.437 36.9452
      vertex 90.2455 84.1925 36.8419
    endloop
  endfacet
  facet normal -0.102969 4.63811e-06 0.994685
    outer loop
      vertex 83.6 81.437 36.154
      vertex 89.85 84.321 36.8009
      vertex 89.541 84.5992 36.769
    endloop
  endfacet
  facet normal -0.102966 0 0.994685
    outer loop
      vertex 89.3718 85.3949 36.7514
      vertex 83.6 81.437 36.154
      vertex 89.3718 84.9791 36.7514
    endloop
  endfacet
  facet normal -0.102968 2.29925e-06 0.994685
    outer loop
      vertex 89.3718 84.9791 36.7514
      vertex 83.6 81.437 36.154
      vertex 89.541 84.5992 36.769
    endloop
  endfacet
  facet normal -0.102966 -4.16598e-07 0.994685
    outer loop
      vertex 89.85 84.321 36.8009
      vertex 83.6 81.437 36.154
      vertex 91.2432 81.437 36.9452
    endloop
  endfacet
  facet normal -0.102966 5.51258e-07 0.994685
    outer loop
      vertex 7.16354 84.7803 28.2415
      vertex 13 81.437 28.8457
      vertex 7.25 85.187 28.2505
    endloop
  endfacet
  facet normal -0.102966 -2.63343e-07 0.994685
    outer loop
      vertex 6.91913 84.4439 28.2162
      vertex 13 81.437 28.8457
      vertex 7.16354 84.7803 28.2415
    endloop
  endfacet
  facet normal -0.102968 -3.76921e-06 0.994685
    outer loop
      vertex 6.55902 84.2359 28.179
      vertex 13 81.437 28.8457
      vertex 6.91913 84.4439 28.2162
    endloop
  endfacet
  facet normal -0.102966 1.1502e-06 0.994685
    outer loop
      vertex 6.14547 84.1925 28.1362
      vertex 13 81.437 28.8457
      vertex 6.55902 84.2359 28.179
    endloop
  endfacet
  facet normal -0.102966 -7.61529e-07 0.994685
    outer loop
      vertex 1 81.437 27.6035
      vertex 6.14547 84.1925 28.1362
      vertex 5.75 84.321 28.0952
    endloop
  endfacet
  facet normal -0.102966 8.63349e-08 0.994685
    outer loop
      vertex 6.14547 84.1925 28.1362
      vertex 1 81.437 27.6035
      vertex 13 81.437 28.8457
    endloop
  endfacet
  facet normal -0.102966 -4.50344e-07 0.994685
    outer loop
      vertex 5.44098 84.5992 28.0632
      vertex 1 81.437 27.6035
      vertex 5.75 84.321 28.0952
    endloop
  endfacet
  facet normal -0.102966 -6.37824e-07 0.994685
    outer loop
      vertex 1 81.437 27.6035
      vertex 5.44098 84.5992 28.0632
      vertex 5.27185 84.9791 28.0457
    endloop
  endfacet
  facet normal -0.999927 0 0.0120658
    outer loop
      vertex 96.0932 91.437 38
      vertex 96.1047 67.337 38.9484
      vertex 96.1047 91.437 38.9484
    endloop
  endfacet
  facet normal -0.999927 0 0.0120658
    outer loop
      vertex 96.0932 53.337 38
      vertex 96.1047 67.337 38.9484
      vertex 96.0932 91.437 38
    endloop
  endfacet
  facet normal -0.999927 0 0.0120658
    outer loop
      vertex 96.0932 53.337 38
      vertex 96.1047 53.337 38.9484
      vertex 96.1047 67.337 38.9484
    endloop
  endfacet
  facet normal -0.973288 -0.229288 0.0117425
    outer loop
      vertex 96.1047 53.337 38.9484
      vertex 96.0932 53.337 38
      vertex 96.0865 53.337 37.4465
    endloop
  endfacet
  facet normal 0.994685 -0 0.102966
    outer loop
      vertex -0.153628 67.337 28.9841
      vertex 0 91.437 27.5
      vertex -0.153628 91.437 28.9841
    endloop
  endfacet
  facet normal 0.994685 0 0.102966
    outer loop
      vertex -0.153628 67.337 28.9841
      vertex 0 53.337 27.5
      vertex 0 91.437 27.5
    endloop
  endfacet
  facet normal 0.994685 -0 0.102966
    outer loop
      vertex -0.153628 0 28.9841
      vertex 0 53.337 27.5
      vertex -0.153628 67.337 28.9841
    endloop
  endfacet
  facet normal 0.994685 0 0.102966
    outer loop
      vertex 0 53.337 27.5
      vertex -0.153628 0 28.9841
      vertex 0 0 27.5
    endloop
  endfacet
  facet normal -0.102965 0 0.994685
    outer loop
      vertex 1 53.337 27.6035
      vertex 0 53.337 27.5
      vertex 1 10 27.6035
    endloop
  endfacet
  facet normal -0.102966 0 0.994685
    outer loop
      vertex 13 10 28.8457
      vertex 7.25 6.25 28.2505
      vertex 13 1 28.8457
    endloop
  endfacet
  facet normal -0.102966 -5.51251e-07 0.994685
    outer loop
      vertex 13 10 28.8457
      vertex 7.16354 6.65674 28.2415
      vertex 7.25 6.25 28.2505
    endloop
  endfacet
  facet normal -0.102966 2.63345e-07 0.994685
    outer loop
      vertex 13 10 28.8457
      vertex 6.91913 6.99314 28.2162
      vertex 7.16354 6.65674 28.2415
    endloop
  endfacet
  facet normal -0.102968 3.76917e-06 0.994685
    outer loop
      vertex 13 10 28.8457
      vertex 6.55902 7.20106 28.179
      vertex 6.91913 6.99314 28.2162
    endloop
  endfacet
  facet normal -0.102966 -1.15024e-06 0.994685
    outer loop
      vertex 13 10 28.8457
      vertex 6.14547 7.24452 28.1362
      vertex 6.55902 7.20106 28.179
    endloop
  endfacet
  facet normal -0.102966 -8.63349e-08 0.994685
    outer loop
      vertex 1 10 27.6035
      vertex 6.14547 7.24452 28.1362
      vertex 13 10 28.8457
    endloop
  endfacet
  facet normal -0.102966 0 0.994685
    outer loop
      vertex 5.27185 6.45791 28.0457
      vertex 1 10 27.6035
      vertex 5.27185 6.04209 28.0457
    endloop
  endfacet
  facet normal -0.102966 6.37827e-07 0.994685
    outer loop
      vertex 5.44098 6.83778 28.0632
      vertex 1 10 27.6035
      vertex 5.27185 6.45791 28.0457
    endloop
  endfacet
  facet normal -0.102966 4.5034e-07 0.994685
    outer loop
      vertex 5.75 7.11602 28.0952
      vertex 1 10 27.6035
      vertex 5.44098 6.83778 28.0632
    endloop
  endfacet
  facet normal -0.102966 7.61542e-07 0.994685
    outer loop
      vertex 6.14547 7.24452 28.1362
      vertex 1 10 27.6035
      vertex 5.75 7.11602 28.0952
    endloop
  endfacet
  facet normal -0.102967 8.52858e-07 0.994685
    outer loop
      vertex 114.7 10 39.3733
      vertex 110.364 6.65674 38.9244
      vertex 110.45 6.25 38.9334
    endloop
  endfacet
  facet normal -0.102964 -3.73593e-06 0.994685
    outer loop
      vertex 114.7 10 39.3733
      vertex 110.119 6.99314 38.8991
      vertex 110.364 6.65674 38.9244
    endloop
  endfacet
  facet normal -0.102971 7.38612e-06 0.994684
    outer loop
      vertex 114.7 10 39.3733
      vertex 109.759 7.20106 38.8619
      vertex 110.119 6.99314 38.8991
    endloop
  endfacet
  facet normal -0.102966 -7.55076e-07 0.994685
    outer loop
      vertex 114.7 10 39.3733
      vertex 109.345 7.24452 38.819
      vertex 109.759 7.20106 38.8619
    endloop
  endfacet
  facet normal -0.102966 -1.07334e-06 0.994685
    outer loop
      vertex 102.7 10 38.1311
      vertex 109.345 7.24452 38.819
      vertex 114.7 10 39.3733
    endloop
  endfacet
  facet normal -0.102966 0 0.994685
    outer loop
      vertex 108.472 6.45791 38.7286
      vertex 102.7 10 38.1311
      vertex 108.472 6.04209 38.7286
    endloop
  endfacet
  facet normal -0.102964 3.87407e-06 0.994685
    outer loop
      vertex 108.641 6.83778 38.7461
      vertex 102.7 10 38.1311
      vertex 108.472 6.45791 38.7286
    endloop
  endfacet
  facet normal -0.102968 -5.08386e-06 0.994685
    outer loop
      vertex 108.95 7.11602 38.7781
      vertex 102.7 10 38.1311
      vertex 108.641 6.83778 38.7461
    endloop
  endfacet
  facet normal -0.102962 8.96985e-06 0.994685
    outer loop
      vertex 109.345 7.24452 38.819
      vertex 102.7 10 38.1311
      vertex 108.95 7.11602 38.7781
    endloop
  endfacet
  facet normal -0.102961 0 0.994685
    outer loop
      vertex 114.7 10 39.3733
      vertex 115.085 53.337 39.4132
      vertex 114.7 52.337 39.3733
    endloop
  endfacet
  facet normal -0.102966 2.00287e-06 0.994685
    outer loop
      vertex 95.6 53.337 37.3962
      vertex 114.7 52.337 39.3733
      vertex 115.085 53.337 39.4132
    endloop
  endfacet
  facet normal -0.102966 0 0.994685
    outer loop
      vertex 114.7 52.337 39.3733
      vertex 95.6 53.337 37.3962
      vertex 95.6 52.337 37.3962
    endloop
  endfacet
  facet normal -0.102961 0 0.994685
    outer loop
      vertex 115.085 53.337 39.4132
      vertex 114.7 10 39.3733
      vertex 115.085 0 39.4132
    endloop
  endfacet
  facet normal -0.102966 -1.99532e-07 0.994685
    outer loop
      vertex 110.45 6.25 38.9334
      vertex 115.085 0 39.4132
      vertex 114.7 10 39.3733
    endloop
  endfacet
  facet normal -0.102967 -8.60723e-07 0.994685
    outer loop
      vertex 110.364 5.84326 38.9244
      vertex 115.085 0 39.4132
      vertex 110.45 6.25 38.9334
    endloop
  endfacet
  facet normal -0.102962 2.8989e-06 0.994685
    outer loop
      vertex 110.119 5.50686 38.8991
      vertex 115.085 0 39.4132
      vertex 110.364 5.84326 38.9244
    endloop
  endfacet
  facet normal -0.102972 -5.63501e-06 0.994684
    outer loop
      vertex 109.759 5.29894 38.8619
      vertex 115.085 0 39.4132
      vertex 110.119 5.50686 38.8991
    endloop
  endfacet
  facet normal -0.102966 8.70802e-08 0.994685
    outer loop
      vertex 109.345 5.25548 38.819
      vertex 115.085 0 39.4132
      vertex 109.759 5.29894 38.8619
    endloop
  endfacet
  facet normal -0.102961 -6.87235e-06 0.994685
    outer loop
      vertex 102.7 1 38.1311
      vertex 109.345 5.25548 38.819
      vertex 108.95 5.38397 38.7781
    endloop
  endfacet
  facet normal -0.102966 0 0.994685
    outer loop
      vertex 102.7 1 38.1311
      vertex 108.472 6.04209 38.7286
      vertex 102.7 10 38.1311
    endloop
  endfacet
  facet normal -0.102963 -3.55134e-06 0.994685
    outer loop
      vertex 108.472 6.04209 38.7286
      vertex 102.7 1 38.1311
      vertex 108.641 5.66221 38.7461
    endloop
  endfacet
  facet normal -0.102969 4.32217e-06 0.994685
    outer loop
      vertex 108.641 5.66221 38.7461
      vertex 102.7 1 38.1311
      vertex 108.95 5.38397 38.7781
    endloop
  endfacet
  facet normal -0.102966 3.97401e-07 0.994685
    outer loop
      vertex 109.345 5.25548 38.819
      vertex 102.7 1 38.1311
      vertex 115.085 0 39.4132
    endloop
  endfacet
  facet normal -0.102966 -3.23741e-06 0.994685
    outer loop
      vertex 13 1 28.8457
      vertex 115.085 0 39.4132
      vertex 102.7 1 38.1311
    endloop
  endfacet
  facet normal -0.102966 5.25651e-07 0.994685
    outer loop
      vertex 7.16354 5.84326 28.2415
      vertex 13 1 28.8457
      vertex 7.25 6.25 28.2505
    endloop
  endfacet
  facet normal -0.102966 -2.32667e-07 0.994685
    outer loop
      vertex 6.91913 5.50686 28.2162
      vertex 13 1 28.8457
      vertex 7.16354 5.84326 28.2415
    endloop
  endfacet
  facet normal -0.102968 -3.06401e-06 0.994685
    outer loop
      vertex 6.55902 5.29894 28.179
      vertex 13 1 28.8457
      vertex 6.91913 5.50686 28.2162
    endloop
  endfacet
  facet normal -0.102966 8.03498e-07 0.994685
    outer loop
      vertex 6.14547 5.25548 28.1362
      vertex 13 1 28.8457
      vertex 6.55902 5.29894 28.179
    endloop
  endfacet
  facet normal -0.102966 -4.52631e-07 0.994685
    outer loop
      vertex 0 0 27.5
      vertex 6.14547 5.25548 28.1362
      vertex 5.75 5.38397 28.0952
    endloop
  endfacet
  facet normal -0.102966 8.4269e-08 0.994685
    outer loop
      vertex 0 0 27.5
      vertex 5.27185 6.04209 28.0457
      vertex 1 10 27.6035
    endloop
  endfacet
  facet normal -0.102966 -3.00911e-07 0.994685
    outer loop
      vertex 13 1 28.8457
      vertex 0 0 27.5
      vertex 115.085 0 39.4132
    endloop
  endfacet
  facet normal -0.102966 1.36889e-07 0.994685
    outer loop
      vertex 6.14547 5.25548 28.1362
      vertex 0 0 27.5
      vertex 13 1 28.8457
    endloop
  endfacet
  facet normal -0.102966 -2.93991e-07 0.994685
    outer loop
      vertex 5.44098 5.66221 28.0632
      vertex 0 0 27.5
      vertex 5.75 5.38397 28.0952
    endloop
  endfacet
  facet normal -0.102966 -5.26744e-07 0.994685
    outer loop
      vertex 5.27185 6.04209 28.0457
      vertex 0 0 27.5
      vertex 5.44098 5.66221 28.0632
    endloop
  endfacet
  facet normal -0.102965 0 0.994685
    outer loop
      vertex 0 0 27.5
      vertex 1 10 27.6035
      vertex 0 53.337 27.5
    endloop
  endfacet
  facet normal -0.999885 0 0.0151448
    outer loop
      vertex 115.085 0 39.4132
      vertex 115.094 53.337 40
      vertex 115.085 53.337 39.4132
    endloop
  endfacet
  facet normal -0.999885 0 0.0151448
    outer loop
      vertex 115.094 53.337 40
      vertex 115.085 0 39.4132
      vertex 115.094 0 40
    endloop
  endfacet
  facet normal -0.102967 0 0.994685
    outer loop
      vertex 98.6 91.437 39.2067
      vertex 96.1047 91.437 38.9484
      vertex 98.6 67.337 39.2067
    endloop
  endfacet
  facet normal -0.102967 7.14159e-08 0.994685
    outer loop
      vertex 98.6 102.437 39.2067
      vertex 96.1047 91.437 38.9484
      vertex 98.6 91.437 39.2067
    endloop
  endfacet
  facet normal -0.102966 -8.04739e-08 0.994685
    outer loop
      vertex -2 102.437 28.793
      vertex 96.1047 91.437 38.9484
      vertex 98.6 102.437 39.2067
    endloop
  endfacet
  facet normal -0.102966 -2.03788e-09 0.994685
    outer loop
      vertex 96.1047 91.437 38.9484
      vertex -2 102.437 28.793
      vertex -0.153628 91.437 28.9841
    endloop
  endfacet
  facet normal -0.102966 0 0.994685
    outer loop
      vertex -2 67.337 28.793
      vertex -0.153628 91.437 28.9841
      vertex -2 102.437 28.793
    endloop
  endfacet
  facet normal -0.102966 0 0.994685
    outer loop
      vertex -0.153628 91.437 28.9841
      vertex -2 67.337 28.793
      vertex -0.153628 67.337 28.9841
    endloop
  endfacet
  facet normal -0.102967 0 0.994685
    outer loop
      vertex 98.6 67.337 39.2067
      vertex 96.1047 91.437 38.9484
      vertex 96.1047 67.337 38.9484
    endloop
  endfacet
  facet normal -0.102966 0 0.994685
    outer loop
      vertex -0.153628 67.337 28.9841
      vertex -2 67.337 28.793
      vertex -0.153628 0 28.9841
    endloop
  endfacet
  facet normal -0.102967 0 0.994685
    outer loop
      vertex 98.6 67.337 39.2067
      vertex 96.1047 67.337 38.9484
      vertex 98.6 55.337 39.2067
    endloop
  endfacet
  facet normal -0.102965 0 0.994685
    outer loop
      vertex 117.7 55.337 41.1839
      vertex 115.7 53.337 40.9768
      vertex 117.7 -2 41.1839
    endloop
  endfacet
  facet normal -0.102966 1.752e-07 0.994685
    outer loop
      vertex 117.7 55.337 41.1839
      vertex 115.108 53.337 40.9155
      vertex 115.7 53.337 40.9768
    endloop
  endfacet
  facet normal -0.102966 7.80924e-07 0.994685
    outer loop
      vertex 98.6 55.337 39.2067
      vertex 115.108 53.337 40.9155
      vertex 117.7 55.337 41.1839
    endloop
  endfacet
  facet normal -0.102966 -7.01064e-07 0.994685
    outer loop
      vertex 98.6 55.337 39.2067
      vertex 96.1047 53.337 38.9484
      vertex 115.108 53.337 40.9155
    endloop
  endfacet
  facet normal -0.102967 0 0.994685
    outer loop
      vertex 96.1047 53.337 38.9484
      vertex 98.6 55.337 39.2067
      vertex 96.1047 67.337 38.9484
    endloop
  endfacet
  facet normal -0.102965 0 0.994685
    outer loop
      vertex 115.7 0 40.9768
      vertex 117.7 -2 41.1839
      vertex 115.7 53.337 40.9768
    endloop
  endfacet
  facet normal -0.102966 -1.752e-07 0.994685
    outer loop
      vertex 115.108 0 40.9155
      vertex 117.7 -2 41.1839
      vertex 115.7 0 40.9768
    endloop
  endfacet
  facet normal -0.102966 2.89339e-08 0.994685
    outer loop
      vertex -2 -2 28.793
      vertex 115.108 0 40.9155
      vertex -0.153628 0 28.9841
    endloop
  endfacet
  facet normal -0.102966 -8.67736e-07 0.994685
    outer loop
      vertex 115.108 0 40.9155
      vertex -2 -2 28.793
      vertex 117.7 -2 41.1839
    endloop
  endfacet
  facet normal -0.102966 0 0.994685
    outer loop
      vertex -2 -2 28.793
      vertex -0.153628 0 28.9841
      vertex -2 67.337 28.793
    endloop
  endfacet
  facet normal -0.978147 -0.207914 0
    outer loop
      vertex 7.25 6.25 13
      vertex 7.16354 6.65674 28.2415
      vertex 7.16354 6.65674 13
    endloop
  endfacet
  facet normal -0.978147 -0.207914 0
    outer loop
      vertex 7.16354 6.65674 28.2415
      vertex 7.25 6.25 13
      vertex 7.25 6.25 28.2505
    endloop
  endfacet
  facet normal 1 -0 0
    outer loop
      vertex 5.27185 6.04209 28.0457
      vertex 5.27185 6.45791 13
      vertex 5.27185 6.45791 28.0457
    endloop
  endfacet
  facet normal 1 0 0
    outer loop
      vertex 5.27185 6.45791 13
      vertex 5.27185 6.04209 28.0457
      vertex 5.27185 6.04209 13
    endloop
  endfacet
  facet normal 0.309017 -0.951057 0
    outer loop
      vertex 6.14547 7.24452 13
      vertex 5.75 7.11602 28.0952
      vertex 5.75 7.11602 13
    endloop
  endfacet
  facet normal 0.309017 -0.951057 0
    outer loop
      vertex 5.75 7.11602 28.0952
      vertex 6.14547 7.24452 13
      vertex 6.14547 7.24452 28.1362
    endloop
  endfacet
  facet normal -0.104527 0.994522 0
    outer loop
      vertex 6.55902 5.29894 13
      vertex 6.14547 5.25548 28.1362
      vertex 6.55902 5.29894 28.179
    endloop
  endfacet
  facet normal -0.104527 0.994522 0
    outer loop
      vertex 6.14547 5.25548 28.1362
      vertex 6.55902 5.29894 13
      vertex 6.14547 5.25548 13
    endloop
  endfacet
  facet normal 0 0 1
    outer loop
      vertex 7.16354 6.65674 13
      vertex 7.16354 5.84326 13
      vertex 7.25 6.25 13
    endloop
  endfacet
  facet normal 0 0 1
    outer loop
      vertex 6.91913 6.99314 13
      vertex 7.16354 5.84326 13
      vertex 7.16354 6.65674 13
    endloop
  endfacet
  facet normal 0 0 1
    outer loop
      vertex 6.91913 6.99314 13
      vertex 6.91913 5.50686 13
      vertex 7.16354 5.84326 13
    endloop
  endfacet
  facet normal 0 0 1
    outer loop
      vertex 6.55902 7.20106 13
      vertex 6.91913 5.50686 13
      vertex 6.91913 6.99314 13
    endloop
  endfacet
  facet normal 0 0 1
    outer loop
      vertex 6.55902 7.20106 13
      vertex 6.55902 5.29894 13
      vertex 6.91913 5.50686 13
    endloop
  endfacet
  facet normal 0 0 1
    outer loop
      vertex 6.14547 7.24452 13
      vertex 6.55902 5.29894 13
      vertex 6.55902 7.20106 13
    endloop
  endfacet
  facet normal 0 0 1
    outer loop
      vertex 6.14547 7.24452 13
      vertex 6.14547 5.25548 13
      vertex 6.55902 5.29894 13
    endloop
  endfacet
  facet normal -0 0 1
    outer loop
      vertex 5.75 7.11602 13
      vertex 6.14547 5.25548 13
      vertex 6.14547 7.24452 13
    endloop
  endfacet
  facet normal 0 0 1
    outer loop
      vertex 5.75 7.11602 13
      vertex 5.75 5.38397 13
      vertex 6.14547 5.25548 13
    endloop
  endfacet
  facet normal -0 0 1
    outer loop
      vertex 5.44098 6.83778 13
      vertex 5.75 5.38397 13
      vertex 5.75 7.11602 13
    endloop
  endfacet
  facet normal 0 0 1
    outer loop
      vertex 5.44098 6.83778 13
      vertex 5.44098 5.66221 13
      vertex 5.75 5.38397 13
    endloop
  endfacet
  facet normal -0 0 1
    outer loop
      vertex 5.27185 6.45791 13
      vertex 5.44098 5.66221 13
      vertex 5.44098 6.83778 13
    endloop
  endfacet
  facet normal 0 0 1
    outer loop
      vertex 5.44098 5.66221 13
      vertex 5.27185 6.45791 13
      vertex 5.27185 6.04209 13
    endloop
  endfacet
  facet normal -0.500001 -0.866025 0
    outer loop
      vertex 6.91913 6.99314 13
      vertex 6.55902 7.20106 28.179
      vertex 6.55902 7.20106 13
    endloop
  endfacet
  facet normal -0.500001 -0.866025 0
    outer loop
      vertex 6.55902 7.20106 28.179
      vertex 6.91913 6.99314 13
      vertex 6.91913 6.99314 28.2162
    endloop
  endfacet
  facet normal -0.809017 -0.587785 0
    outer loop
      vertex 7.16354 6.65674 13
      vertex 6.91913 6.99314 28.2162
      vertex 6.91913 6.99314 13
    endloop
  endfacet
  facet normal -0.809017 -0.587785 0
    outer loop
      vertex 6.91913 6.99314 28.2162
      vertex 7.16354 6.65674 13
      vertex 7.16354 6.65674 28.2415
    endloop
  endfacet
  facet normal -0.104527 -0.994522 0
    outer loop
      vertex 6.55902 7.20106 13
      vertex 6.14547 7.24452 28.1362
      vertex 6.14547 7.24452 13
    endloop
  endfacet
  facet normal -0.104527 -0.994522 0
    outer loop
      vertex 6.14547 7.24452 28.1362
      vertex 6.55902 7.20106 13
      vertex 6.55902 7.20106 28.179
    endloop
  endfacet
  facet normal 0.913545 -0.406738 0
    outer loop
      vertex 5.27185 6.45791 28.0457
      vertex 5.44098 6.83778 13
      vertex 5.44098 6.83778 28.0632
    endloop
  endfacet
  facet normal 0.913545 -0.406738 0
    outer loop
      vertex 5.44098 6.83778 13
      vertex 5.27185 6.45791 28.0457
      vertex 5.27185 6.45791 13
    endloop
  endfacet
  facet normal 0.66913 -0.743145 0
    outer loop
      vertex 5.75 7.11602 13
      vertex 5.44098 6.83778 28.0632
      vertex 5.44098 6.83778 13
    endloop
  endfacet
  facet normal 0.66913 -0.743145 0
    outer loop
      vertex 5.44098 6.83778 28.0632
      vertex 5.75 7.11602 13
      vertex 5.75 7.11602 28.0952
    endloop
  endfacet
  facet normal -0.978147 0.207913 0
    outer loop
      vertex 7.16354 5.84326 28.2415
      vertex 7.25 6.25 13
      vertex 7.16354 5.84326 13
    endloop
  endfacet
  facet normal -0.978147 0.207913 0
    outer loop
      vertex 7.25 6.25 13
      vertex 7.16354 5.84326 28.2415
      vertex 7.25 6.25 28.2505
    endloop
  endfacet
  facet normal 0.309017 0.951057 -0
    outer loop
      vertex 6.14547 5.25548 13
      vertex 5.75 5.38397 28.0952
      vertex 6.14547 5.25548 28.1362
    endloop
  endfacet
  facet normal 0.309017 0.951057 0
    outer loop
      vertex 5.75 5.38397 28.0952
      vertex 6.14547 5.25548 13
      vertex 5.75 5.38397 13
    endloop
  endfacet
  facet normal 0.913545 0.406738 -0
    outer loop
      vertex 5.44098 5.66221 13
      vertex 5.27185 6.04209 28.0457
      vertex 5.44098 5.66221 28.0632
    endloop
  endfacet
  facet normal 0.913545 0.406738 0
    outer loop
      vertex 5.27185 6.04209 28.0457
      vertex 5.44098 5.66221 13
      vertex 5.27185 6.04209 13
    endloop
  endfacet
  facet normal -0.809017 0.587785 0
    outer loop
      vertex 6.91913 5.50686 28.2162
      vertex 7.16354 5.84326 13
      vertex 6.91913 5.50686 13
    endloop
  endfacet
  facet normal -0.809017 0.587785 0
    outer loop
      vertex 7.16354 5.84326 13
      vertex 6.91913 5.50686 28.2162
      vertex 7.16354 5.84326 28.2415
    endloop
  endfacet
  facet normal -0.500001 0.866025 0
    outer loop
      vertex 6.91913 5.50686 13
      vertex 6.55902 5.29894 28.179
      vertex 6.91913 5.50686 28.2162
    endloop
  endfacet
  facet normal -0.500001 0.866025 0
    outer loop
      vertex 6.55902 5.29894 28.179
      vertex 6.91913 5.50686 13
      vertex 6.55902 5.29894 13
    endloop
  endfacet
  facet normal 0.66913 0.743145 -0
    outer loop
      vertex 5.75 5.38397 13
      vertex 5.44098 5.66221 28.0632
      vertex 5.75 5.38397 28.0952
    endloop
  endfacet
  facet normal 0.66913 0.743145 0
    outer loop
      vertex 5.44098 5.66221 28.0632
      vertex 5.75 5.38397 13
      vertex 5.44098 5.66221 13
    endloop
  endfacet
  facet normal -0.97815 -0.207898 0
    outer loop
      vertex 110.45 6.25 13
      vertex 110.364 6.65674 38.9244
      vertex 110.364 6.65674 13
    endloop
  endfacet
  facet normal -0.97815 -0.207898 0
    outer loop
      vertex 110.364 6.65674 38.9244
      vertex 110.45 6.25 13
      vertex 110.45 6.25 38.9334
    endloop
  endfacet
  facet normal 1 -0 0
    outer loop
      vertex 108.472 6.04209 38.7286
      vertex 108.472 6.45791 13
      vertex 108.472 6.45791 38.7286
    endloop
  endfacet
  facet normal 1 0 0
    outer loop
      vertex 108.472 6.45791 13
      vertex 108.472 6.04209 38.7286
      vertex 108.472 6.04209 13
    endloop
  endfacet
  facet normal 0.309012 -0.951058 0
    outer loop
      vertex 109.345 7.24452 13
      vertex 108.95 7.11602 38.7781
      vertex 108.95 7.11602 13
    endloop
  endfacet
  facet normal 0.309012 -0.951058 0
    outer loop
      vertex 108.95 7.11602 38.7781
      vertex 109.345 7.24452 13
      vertex 109.345 7.24452 38.819
    endloop
  endfacet
  facet normal 0.669135 -0.743141 0
    outer loop
      vertex 108.95 7.11602 13
      vertex 108.641 6.83778 38.7461
      vertex 108.641 6.83778 13
    endloop
  endfacet
  facet normal 0.669135 -0.743141 0
    outer loop
      vertex 108.641 6.83778 38.7461
      vertex 108.95 7.11602 13
      vertex 108.95 7.11602 38.7781
    endloop
  endfacet
  facet normal -0.104527 0.994522 0
    outer loop
      vertex 109.759 5.29894 13
      vertex 109.345 5.25548 38.819
      vertex 109.759 5.29894 38.8619
    endloop
  endfacet
  facet normal -0.104527 0.994522 0
    outer loop
      vertex 109.345 5.25548 38.819
      vertex 109.759 5.29894 13
      vertex 109.345 5.25548 13
    endloop
  endfacet
  facet normal 0 0 1
    outer loop
      vertex 110.364 6.65674 13
      vertex 110.364 5.84326 13
      vertex 110.45 6.25 13
    endloop
  endfacet
  facet normal 0 0 1
    outer loop
      vertex 110.119 6.99314 13
      vertex 110.364 5.84326 13
      vertex 110.364 6.65674 13
    endloop
  endfacet
  facet normal 0 0 1
    outer loop
      vertex 110.119 6.99314 13
      vertex 110.119 5.50686 13
      vertex 110.364 5.84326 13
    endloop
  endfacet
  facet normal 0 0 1
    outer loop
      vertex 109.759 7.20106 13
      vertex 110.119 5.50686 13
      vertex 110.119 6.99314 13
    endloop
  endfacet
  facet normal 0 0 1
    outer loop
      vertex 109.759 7.20106 13
      vertex 109.759 5.29894 13
      vertex 110.119 5.50686 13
    endloop
  endfacet
  facet normal 0 0 1
    outer loop
      vertex 109.345 7.24452 13
      vertex 109.759 5.29894 13
      vertex 109.759 7.20106 13
    endloop
  endfacet
  facet normal 0 0 1
    outer loop
      vertex 109.345 7.24452 13
      vertex 109.345 5.25548 13
      vertex 109.759 5.29894 13
    endloop
  endfacet
  facet normal -0 0 1
    outer loop
      vertex 108.95 7.11602 13
      vertex 109.345 5.25548 13
      vertex 109.345 7.24452 13
    endloop
  endfacet
  facet normal 0 0 1
    outer loop
      vertex 108.95 7.11602 13
      vertex 108.95 5.38397 13
      vertex 109.345 5.25548 13
    endloop
  endfacet
  facet normal -0 0 1
    outer loop
      vertex 108.641 6.83778 13
      vertex 108.95 5.38397 13
      vertex 108.95 7.11602 13
    endloop
  endfacet
  facet normal 0 0 1
    outer loop
      vertex 108.641 6.83778 13
      vertex 108.641 5.66221 13
      vertex 108.95 5.38397 13
    endloop
  endfacet
  facet normal -0 0 1
    outer loop
      vertex 108.472 6.45791 13
      vertex 108.641 5.66221 13
      vertex 108.641 6.83778 13
    endloop
  endfacet
  facet normal 0 0 1
    outer loop
      vertex 108.641 5.66221 13
      vertex 108.472 6.45791 13
      vertex 108.472 6.04209 13
    endloop
  endfacet
  facet normal -0.5 -0.866025 0
    outer loop
      vertex 110.119 6.99314 13
      vertex 109.759 7.20106 38.8619
      vertex 109.759 7.20106 13
    endloop
  endfacet
  facet normal -0.5 -0.866025 0
    outer loop
      vertex 109.759 7.20106 38.8619
      vertex 110.119 6.99314 13
      vertex 110.119 6.99314 38.8991
    endloop
  endfacet
  facet normal -0.809016 -0.587787 0
    outer loop
      vertex 110.364 6.65674 13
      vertex 110.119 6.99314 38.8991
      vertex 110.119 6.99314 13
    endloop
  endfacet
  facet normal -0.809016 -0.587787 0
    outer loop
      vertex 110.119 6.99314 38.8991
      vertex 110.364 6.65674 13
      vertex 110.364 6.65674 38.9244
    endloop
  endfacet
  facet normal -0.104527 -0.994522 0
    outer loop
      vertex 109.759 7.20106 13
      vertex 109.345 7.24452 38.819
      vertex 109.345 7.24452 13
    endloop
  endfacet
  facet normal -0.104527 -0.994522 0
    outer loop
      vertex 109.345 7.24452 38.819
      vertex 109.759 7.20106 13
      vertex 109.759 7.20106 38.8619
    endloop
  endfacet
  facet normal 0.913547 -0.406733 0
    outer loop
      vertex 108.472 6.45791 38.7286
      vertex 108.641 6.83778 13
      vertex 108.641 6.83778 38.7461
    endloop
  endfacet
  facet normal 0.913547 -0.406733 0
    outer loop
      vertex 108.641 6.83778 13
      vertex 108.472 6.45791 38.7286
      vertex 108.472 6.45791 13
    endloop
  endfacet
  facet normal -0.978151 0.207898 0
    outer loop
      vertex 110.364 5.84326 38.9244
      vertex 110.45 6.25 13
      vertex 110.364 5.84326 13
    endloop
  endfacet
  facet normal -0.978151 0.207898 0
    outer loop
      vertex 110.45 6.25 13
      vertex 110.364 5.84326 38.9244
      vertex 110.45 6.25 38.9334
    endloop
  endfacet
  facet normal 0.309012 0.951058 -0
    outer loop
      vertex 109.345 5.25548 13
      vertex 108.95 5.38397 38.7781
      vertex 109.345 5.25548 38.819
    endloop
  endfacet
  facet normal 0.309012 0.951058 0
    outer loop
      vertex 108.95 5.38397 38.7781
      vertex 109.345 5.25548 13
      vertex 108.95 5.38397 13
    endloop
  endfacet
  facet normal 0.913547 0.406733 -0
    outer loop
      vertex 108.641 5.66221 13
      vertex 108.472 6.04209 38.7286
      vertex 108.641 5.66221 38.7461
    endloop
  endfacet
  facet normal 0.913547 0.406733 0
    outer loop
      vertex 108.472 6.04209 38.7286
      vertex 108.641 5.66221 13
      vertex 108.472 6.04209 13
    endloop
  endfacet
  facet normal -0.809016 0.587787 0
    outer loop
      vertex 110.119 5.50686 38.8991
      vertex 110.364 5.84326 13
      vertex 110.119 5.50686 13
    endloop
  endfacet
  facet normal -0.809016 0.587787 0
    outer loop
      vertex 110.364 5.84326 13
      vertex 110.119 5.50686 38.8991
      vertex 110.364 5.84326 38.9244
    endloop
  endfacet
  facet normal -0.5 0.866025 0
    outer loop
      vertex 110.119 5.50686 13
      vertex 109.759 5.29894 38.8619
      vertex 110.119 5.50686 38.8991
    endloop
  endfacet
  facet normal -0.5 0.866025 0
    outer loop
      vertex 109.759 5.29894 38.8619
      vertex 110.119 5.50686 13
      vertex 109.759 5.29894 13
    endloop
  endfacet
  facet normal 0.669135 0.743141 -0
    outer loop
      vertex 108.95 5.38397 13
      vertex 108.641 5.66221 38.7461
      vertex 108.95 5.38397 38.7781
    endloop
  endfacet
  facet normal 0.669135 0.743141 0
    outer loop
      vertex 108.641 5.66221 38.7461
      vertex 108.95 5.38397 13
      vertex 108.641 5.66221 13
    endloop
  endfacet
  facet normal -0.978147 -0.207913 0
    outer loop
      vertex 7.25 85.187 13
      vertex 7.16354 85.5937 28.2415
      vertex 7.16354 85.5937 13
    endloop
  endfacet
  facet normal -0.978147 -0.207913 0
    outer loop
      vertex 7.16354 85.5937 28.2415
      vertex 7.25 85.187 13
      vertex 7.25 85.187 28.2505
    endloop
  endfacet
  facet normal 1 -0 0
    outer loop
      vertex 5.27185 84.9791 28.0457
      vertex 5.27185 85.3949 13
      vertex 5.27185 85.3949 28.0457
    endloop
  endfacet
  facet normal 1 0 0
    outer loop
      vertex 5.27185 85.3949 13
      vertex 5.27185 84.9791 28.0457
      vertex 5.27185 84.9791 13
    endloop
  endfacet
  facet normal -0.104545 0.99452 0
    outer loop
      vertex 6.55902 84.2359 13
      vertex 6.14547 84.1925 28.1362
      vertex 6.55902 84.2359 28.179
    endloop
  endfacet
  facet normal -0.104545 0.99452 0
    outer loop
      vertex 6.14547 84.1925 28.1362
      vertex 6.55902 84.2359 13
      vertex 6.14547 84.1925 13
    endloop
  endfacet
  facet normal -0.104527 -0.994522 0
    outer loop
      vertex 6.55902 86.1381 13
      vertex 6.14547 86.1815 28.1362
      vertex 6.14547 86.1815 13
    endloop
  endfacet
  facet normal -0.104527 -0.994522 0
    outer loop
      vertex 6.14547 86.1815 28.1362
      vertex 6.55902 86.1381 13
      vertex 6.55902 86.1381 28.179
    endloop
  endfacet
  facet normal -0.80902 -0.587782 0
    outer loop
      vertex 7.16354 85.5937 13
      vertex 6.91913 85.9301 28.2162
      vertex 6.91913 85.9301 13
    endloop
  endfacet
  facet normal -0.80902 -0.587782 0
    outer loop
      vertex 6.91913 85.9301 28.2162
      vertex 7.16354 85.5937 13
      vertex 7.16354 85.5937 28.2415
    endloop
  endfacet
  facet normal -0.499994 -0.866029 0
    outer loop
      vertex 6.91913 85.9301 13
      vertex 6.55902 86.1381 28.179
      vertex 6.55902 86.1381 13
    endloop
  endfacet
  facet normal -0.499994 -0.866029 0
    outer loop
      vertex 6.55902 86.1381 28.179
      vertex 6.91913 85.9301 13
      vertex 6.91913 85.9301 28.2162
    endloop
  endfacet
  facet normal 0.669125 -0.74315 0
    outer loop
      vertex 5.75 86.053 13
      vertex 5.44098 85.7748 28.0632
      vertex 5.44098 85.7748 13
    endloop
  endfacet
  facet normal 0.669125 -0.74315 0
    outer loop
      vertex 5.44098 85.7748 28.0632
      vertex 5.75 86.053 13
      vertex 5.75 86.053 28.0952
    endloop
  endfacet
  facet normal 0.913546 -0.406737 0
    outer loop
      vertex 5.27185 85.3949 28.0457
      vertex 5.44098 85.7748 13
      vertex 5.44098 85.7748 28.0632
    endloop
  endfacet
  facet normal 0.913546 -0.406737 0
    outer loop
      vertex 5.44098 85.7748 13
      vertex 5.27185 85.3949 28.0457
      vertex 5.27185 85.3949 13
    endloop
  endfacet
  facet normal 0.309013 -0.951058 0
    outer loop
      vertex 6.14547 86.1815 13
      vertex 5.75 86.053 28.0952
      vertex 5.75 86.053 13
    endloop
  endfacet
  facet normal 0.309013 -0.951058 0
    outer loop
      vertex 5.75 86.053 28.0952
      vertex 6.14547 86.1815 13
      vertex 6.14547 86.1815 28.1362
    endloop
  endfacet
  facet normal -0.978147 0.207916 0
    outer loop
      vertex 7.16354 84.7803 28.2415
      vertex 7.25 85.187 13
      vertex 7.16354 84.7803 13
    endloop
  endfacet
  facet normal -0.978147 0.207916 0
    outer loop
      vertex 7.25 85.187 13
      vertex 7.16354 84.7803 28.2415
      vertex 7.25 85.187 28.2505
    endloop
  endfacet
  facet normal 0 0 1
    outer loop
      vertex 7.16354 85.5937 13
      vertex 7.16354 84.7803 13
      vertex 7.25 85.187 13
    endloop
  endfacet
  facet normal 0 0 1
    outer loop
      vertex 6.91913 85.9301 13
      vertex 7.16354 84.7803 13
      vertex 7.16354 85.5937 13
    endloop
  endfacet
  facet normal 0 0 1
    outer loop
      vertex 6.91913 85.9301 13
      vertex 6.91913 84.4439 13
      vertex 7.16354 84.7803 13
    endloop
  endfacet
  facet normal 0 0 1
    outer loop
      vertex 6.55902 86.1381 13
      vertex 6.91913 84.4439 13
      vertex 6.91913 85.9301 13
    endloop
  endfacet
  facet normal 0 0 1
    outer loop
      vertex 6.55902 86.1381 13
      vertex 6.55902 84.2359 13
      vertex 6.91913 84.4439 13
    endloop
  endfacet
  facet normal 0 0 1
    outer loop
      vertex 6.14547 86.1815 13
      vertex 6.55902 84.2359 13
      vertex 6.55902 86.1381 13
    endloop
  endfacet
  facet normal 0 0 1
    outer loop
      vertex 6.14547 86.1815 13
      vertex 6.14547 84.1925 13
      vertex 6.55902 84.2359 13
    endloop
  endfacet
  facet normal -0 0 1
    outer loop
      vertex 5.75 86.053 13
      vertex 6.14547 84.1925 13
      vertex 6.14547 86.1815 13
    endloop
  endfacet
  facet normal 0 0 1
    outer loop
      vertex 5.75 86.053 13
      vertex 5.75 84.321 13
      vertex 6.14547 84.1925 13
    endloop
  endfacet
  facet normal -0 0 1
    outer loop
      vertex 5.44098 85.7748 13
      vertex 5.75 84.321 13
      vertex 5.75 86.053 13
    endloop
  endfacet
  facet normal 0 0 1
    outer loop
      vertex 5.44098 85.7748 13
      vertex 5.44098 84.5992 13
      vertex 5.75 84.321 13
    endloop
  endfacet
  facet normal -0 0 1
    outer loop
      vertex 5.27185 85.3949 13
      vertex 5.44098 84.5992 13
      vertex 5.44098 85.7748 13
    endloop
  endfacet
  facet normal 0 0 1
    outer loop
      vertex 5.44098 84.5992 13
      vertex 5.27185 85.3949 13
      vertex 5.27185 84.9791 13
    endloop
  endfacet
  facet normal -0.499994 0.866029 0
    outer loop
      vertex 6.91913 84.4439 13
      vertex 6.55902 84.2359 28.179
      vertex 6.91913 84.4439 28.2162
    endloop
  endfacet
  facet normal -0.499994 0.866029 0
    outer loop
      vertex 6.55902 84.2359 28.179
      vertex 6.91913 84.4439 13
      vertex 6.55902 84.2359 13
    endloop
  endfacet
  facet normal 0.309029 0.951052 -0
    outer loop
      vertex 6.14547 84.1925 13
      vertex 5.75 84.321 28.0952
      vertex 6.14547 84.1925 28.1362
    endloop
  endfacet
  facet normal 0.309029 0.951052 0
    outer loop
      vertex 5.75 84.321 28.0952
      vertex 6.14547 84.1925 13
      vertex 5.75 84.321 13
    endloop
  endfacet
  facet normal 0.669125 0.74315 -0
    outer loop
      vertex 5.75 84.321 13
      vertex 5.44098 84.5992 28.0632
      vertex 5.75 84.321 28.0952
    endloop
  endfacet
  facet normal 0.669125 0.74315 0
    outer loop
      vertex 5.44098 84.5992 28.0632
      vertex 5.75 84.321 13
      vertex 5.44098 84.5992 13
    endloop
  endfacet
  facet normal 0.913546 0.406737 -0
    outer loop
      vertex 5.44098 84.5992 13
      vertex 5.27185 84.9791 28.0457
      vertex 5.44098 84.5992 28.0632
    endloop
  endfacet
  facet normal 0.913546 0.406737 0
    outer loop
      vertex 5.27185 84.9791 28.0457
      vertex 5.44098 84.5992 13
      vertex 5.27185 84.9791 13
    endloop
  endfacet
  facet normal -0.80902 0.587782 0
    outer loop
      vertex 6.91913 84.4439 28.2162
      vertex 7.16354 84.7803 13
      vertex 6.91913 84.4439 13
    endloop
  endfacet
  facet normal -0.80902 0.587782 0
    outer loop
      vertex 7.16354 84.7803 13
      vertex 6.91913 84.4439 28.2162
      vertex 7.16354 84.7803 28.2415
    endloop
  endfacet
  facet normal -0.978147 -0.207915 0
    outer loop
      vertex 91.35 85.187 13
      vertex 91.2635 85.5937 36.9473
      vertex 91.2635 85.5937 13
    endloop
  endfacet
  facet normal -0.978147 -0.207915 0
    outer loop
      vertex 91.2635 85.5937 36.9473
      vertex 91.35 85.187 13
      vertex 91.35 85.187 36.9562
    endloop
  endfacet
  facet normal 1 -0 0
    outer loop
      vertex 89.3718 84.9791 36.7514
      vertex 89.3718 85.3949 13
      vertex 89.3718 85.3949 36.7514
    endloop
  endfacet
  facet normal 1 0 0
    outer loop
      vertex 89.3718 85.3949 13
      vertex 89.3718 84.9791 36.7514
      vertex 89.3718 84.9791 13
    endloop
  endfacet
  facet normal -0.104543 0.99452 0
    outer loop
      vertex 90.659 84.2359 13
      vertex 90.2455 84.1925 36.8419
      vertex 90.659 84.2359 36.8847
    endloop
  endfacet
  facet normal -0.104543 0.99452 0
    outer loop
      vertex 90.2455 84.1925 36.8419
      vertex 90.659 84.2359 13
      vertex 90.2455 84.1925 13
    endloop
  endfacet
  facet normal 0.309013 -0.951058 0
    outer loop
      vertex 90.2455 86.1815 13
      vertex 89.85 86.053 36.8009
      vertex 89.85 86.053 13
    endloop
  endfacet
  facet normal 0.309013 -0.951058 0
    outer loop
      vertex 89.85 86.053 36.8009
      vertex 90.2455 86.1815 13
      vertex 90.2455 86.1815 36.8419
    endloop
  endfacet
  facet normal 0.66913 -0.743145 0
    outer loop
      vertex 89.85 86.053 13
      vertex 89.541 85.7748 36.769
      vertex 89.541 85.7748 13
    endloop
  endfacet
  facet normal 0.66913 -0.743145 0
    outer loop
      vertex 89.541 85.7748 36.769
      vertex 89.85 86.053 13
      vertex 89.85 86.053 36.8009
    endloop
  endfacet
  facet normal -0.500001 -0.866025 0
    outer loop
      vertex 91.0191 85.9301 13
      vertex 90.659 86.1381 36.8847
      vertex 90.659 86.1381 13
    endloop
  endfacet
  facet normal -0.500001 -0.866025 0
    outer loop
      vertex 90.659 86.1381 36.8847
      vertex 91.0191 85.9301 13
      vertex 91.0191 85.9301 36.922
    endloop
  endfacet
  facet normal -0.809018 -0.587783 0
    outer loop
      vertex 91.2635 85.5937 13
      vertex 91.0191 85.9301 36.922
      vertex 91.0191 85.9301 13
    endloop
  endfacet
  facet normal -0.809018 -0.587783 0
    outer loop
      vertex 91.0191 85.9301 36.922
      vertex 91.2635 85.5937 13
      vertex 91.2635 85.5937 36.9473
    endloop
  endfacet
  facet normal -0.104525 -0.994522 0
    outer loop
      vertex 90.659 86.1381 13
      vertex 90.2455 86.1815 36.8419
      vertex 90.2455 86.1815 13
    endloop
  endfacet
  facet normal -0.104525 -0.994522 0
    outer loop
      vertex 90.2455 86.1815 36.8419
      vertex 90.659 86.1381 13
      vertex 90.659 86.1381 36.8847
    endloop
  endfacet
  facet normal 0.913541 -0.406746 0
    outer loop
      vertex 89.3718 85.3949 36.7514
      vertex 89.541 85.7748 13
      vertex 89.541 85.7748 36.769
    endloop
  endfacet
  facet normal 0.913541 -0.406746 0
    outer loop
      vertex 89.541 85.7748 13
      vertex 89.3718 85.3949 36.7514
      vertex 89.3718 85.3949 13
    endloop
  endfacet
  facet normal -0.978146 0.207919 0
    outer loop
      vertex 91.2635 84.7803 36.9473
      vertex 91.35 85.187 13
      vertex 91.2635 84.7803 13
    endloop
  endfacet
  facet normal -0.978146 0.207919 0
    outer loop
      vertex 91.35 85.187 13
      vertex 91.2635 84.7803 36.9473
      vertex 91.35 85.187 36.9562
    endloop
  endfacet
  facet normal 0.913541 0.406746 -0
    outer loop
      vertex 89.541 84.5992 13
      vertex 89.3718 84.9791 36.7514
      vertex 89.541 84.5992 36.769
    endloop
  endfacet
  facet normal 0.913541 0.406746 0
    outer loop
      vertex 89.3718 84.9791 36.7514
      vertex 89.541 84.5992 13
      vertex 89.3718 84.9791 13
    endloop
  endfacet
  facet normal 0 0 1
    outer loop
      vertex 91.2635 85.5937 13
      vertex 91.2635 84.7803 13
      vertex 91.35 85.187 13
    endloop
  endfacet
  facet normal 0 0 1
    outer loop
      vertex 91.0191 85.9301 13
      vertex 91.2635 84.7803 13
      vertex 91.2635 85.5937 13
    endloop
  endfacet
  facet normal 0 0 1
    outer loop
      vertex 91.0191 85.9301 13
      vertex 91.0191 84.4439 13
      vertex 91.2635 84.7803 13
    endloop
  endfacet
  facet normal 0 0 1
    outer loop
      vertex 90.659 86.1381 13
      vertex 91.0191 84.4439 13
      vertex 91.0191 85.9301 13
    endloop
  endfacet
  facet normal 0 0 1
    outer loop
      vertex 90.659 86.1381 13
      vertex 90.659 84.2359 13
      vertex 91.0191 84.4439 13
    endloop
  endfacet
  facet normal 0 0 1
    outer loop
      vertex 90.2455 86.1815 13
      vertex 90.659 84.2359 13
      vertex 90.659 86.1381 13
    endloop
  endfacet
  facet normal 0 0 1
    outer loop
      vertex 90.2455 86.1815 13
      vertex 90.2455 84.1925 13
      vertex 90.659 84.2359 13
    endloop
  endfacet
  facet normal -0 0 1
    outer loop
      vertex 89.85 86.053 13
      vertex 90.2455 84.1925 13
      vertex 90.2455 86.1815 13
    endloop
  endfacet
  facet normal 0 0 1
    outer loop
      vertex 89.85 86.053 13
      vertex 89.85 84.321 13
      vertex 90.2455 84.1925 13
    endloop
  endfacet
  facet normal -0 0 1
    outer loop
      vertex 89.541 85.7748 13
      vertex 89.85 84.321 13
      vertex 89.85 86.053 13
    endloop
  endfacet
  facet normal 0 0 1
    outer loop
      vertex 89.541 85.7748 13
      vertex 89.541 84.5992 13
      vertex 89.85 84.321 13
    endloop
  endfacet
  facet normal -0 0 1
    outer loop
      vertex 89.3718 85.3949 13
      vertex 89.541 84.5992 13
      vertex 89.541 85.7748 13
    endloop
  endfacet
  facet normal 0 0 1
    outer loop
      vertex 89.541 84.5992 13
      vertex 89.3718 85.3949 13
      vertex 89.3718 84.9791 13
    endloop
  endfacet
  facet normal -0.500001 0.866025 0
    outer loop
      vertex 91.0191 84.4439 13
      vertex 90.659 84.2359 36.8847
      vertex 91.0191 84.4439 36.922
    endloop
  endfacet
  facet normal -0.500001 0.866025 0
    outer loop
      vertex 90.659 84.2359 36.8847
      vertex 91.0191 84.4439 13
      vertex 90.659 84.2359 13
    endloop
  endfacet
  facet normal 0.30903 0.951052 -0
    outer loop
      vertex 90.2455 84.1925 13
      vertex 89.85 84.321 36.8009
      vertex 90.2455 84.1925 36.8419
    endloop
  endfacet
  facet normal 0.30903 0.951052 0
    outer loop
      vertex 89.85 84.321 36.8009
      vertex 90.2455 84.1925 13
      vertex 89.85 84.321 13
    endloop
  endfacet
  facet normal 0.66913 0.743145 -0
    outer loop
      vertex 89.85 84.321 13
      vertex 89.541 84.5992 36.769
      vertex 89.85 84.321 36.8009
    endloop
  endfacet
  facet normal 0.66913 0.743145 0
    outer loop
      vertex 89.541 84.5992 36.769
      vertex 89.85 84.321 13
      vertex 89.541 84.5992 13
    endloop
  endfacet
  facet normal -0.809018 0.587783 0
    outer loop
      vertex 91.0191 84.4439 36.922
      vertex 91.2635 84.7803 13
      vertex 91.0191 84.4439 13
    endloop
  endfacet
  facet normal -0.809018 0.587783 0
    outer loop
      vertex 91.2635 84.7803 13
      vertex 91.0191 84.4439 36.922
      vertex 91.2635 84.7803 36.9473
    endloop
  endfacet
  facet normal 0 -0.207911 0.978148
    outer loop
      vertex 83.6 96.5937 26.7365
      vertex 95.59 96.187 26.65
      vertex 95.59 96.5937 26.7365
    endloop
  endfacet
  facet normal 0 -0.207911 0.978148
    outer loop
      vertex 95.59 96.187 26.65
      vertex 83.6 96.5937 26.7365
      vertex 83.6 96.187 26.65
    endloop
  endfacet
  facet normal 0 0 -1
    outer loop
      vertex 83.6 95.9791 28.6281
      vertex 95.59 96.3949 28.6281
      vertex 95.59 95.9791 28.6281
    endloop
  endfacet
  facet normal -0 0 -1
    outer loop
      vertex 95.59 96.3949 28.6281
      vertex 83.6 95.9791 28.6281
      vertex 83.6 96.3949 28.6281
    endloop
  endfacet
  facet normal 0 0.99452 0.104545
    outer loop
      vertex 95.59 95.2359 27.341
      vertex 83.6 95.1925 27.7545
      vertex 95.59 95.1925 27.7545
    endloop
  endfacet
  facet normal 0 0.99452 0.104545
    outer loop
      vertex 83.6 95.1925 27.7545
      vertex 95.59 95.2359 27.341
      vertex 83.6 95.2359 27.341
    endloop
  endfacet
  facet normal 0 -0.951058 -0.309012
    outer loop
      vertex 83.6 97.1815 27.7545
      vertex 95.59 97.053 28.15
      vertex 83.6 97.053 28.15
    endloop
  endfacet
  facet normal 0 -0.951058 -0.309012
    outer loop
      vertex 95.59 97.053 28.15
      vertex 83.6 97.1815 27.7545
      vertex 95.59 97.1815 27.7545
    endloop
  endfacet
  facet normal 0 -0.74315 -0.669125
    outer loop
      vertex 83.6 97.053 28.15
      vertex 95.59 96.7748 28.459
      vertex 83.6 96.7748 28.459
    endloop
  endfacet
  facet normal 0 -0.74315 -0.669125
    outer loop
      vertex 95.59 96.7748 28.459
      vertex 83.6 97.053 28.15
      vertex 95.59 97.053 28.15
    endloop
  endfacet
  facet normal 1 0 0
    outer loop
      vertex 83.6 97.053 28.15
      vertex 83.6 97.1381 27.341
      vertex 83.6 97.1815 27.7545
    endloop
  endfacet
  facet normal 1 0 0
    outer loop
      vertex 83.6 97.053 28.15
      vertex 83.6 96.9301 26.9809
      vertex 83.6 97.1381 27.341
    endloop
  endfacet
  facet normal 1 0 0
    outer loop
      vertex 83.6 96.7748 28.459
      vertex 83.6 96.9301 26.9809
      vertex 83.6 97.053 28.15
    endloop
  endfacet
  facet normal 1 0 0
    outer loop
      vertex 83.6 96.7748 28.459
      vertex 83.6 96.5937 26.7365
      vertex 83.6 96.9301 26.9809
    endloop
  endfacet
  facet normal 1 0 0
    outer loop
      vertex 83.6 96.3949 28.6281
      vertex 83.6 96.5937 26.7365
      vertex 83.6 96.7748 28.459
    endloop
  endfacet
  facet normal 1 0 0
    outer loop
      vertex 83.6 96.3949 28.6281
      vertex 83.6 96.187 26.65
      vertex 83.6 96.5937 26.7365
    endloop
  endfacet
  facet normal 1 -0 0
    outer loop
      vertex 83.6 95.9791 28.6281
      vertex 83.6 96.187 26.65
      vertex 83.6 96.3949 28.6281
    endloop
  endfacet
  facet normal 1 0 0
    outer loop
      vertex 83.6 95.9791 28.6281
      vertex 83.6 95.7803 26.7365
      vertex 83.6 96.187 26.65
    endloop
  endfacet
  facet normal 1 -0 0
    outer loop
      vertex 83.6 95.5992 28.459
      vertex 83.6 95.7803 26.7365
      vertex 83.6 95.9791 28.6281
    endloop
  endfacet
  facet normal 1 0 0
    outer loop
      vertex 83.6 95.5992 28.459
      vertex 83.6 95.4439 26.9809
      vertex 83.6 95.7803 26.7365
    endloop
  endfacet
  facet normal 1 -0 0
    outer loop
      vertex 83.6 95.321 28.15
      vertex 83.6 95.4439 26.9809
      vertex 83.6 95.5992 28.459
    endloop
  endfacet
  facet normal 1 0 0
    outer loop
      vertex 83.6 95.321 28.15
      vertex 83.6 95.2359 27.341
      vertex 83.6 95.4439 26.9809
    endloop
  endfacet
  facet normal 1 0 -0
    outer loop
      vertex 83.6 95.2359 27.341
      vertex 83.6 95.321 28.15
      vertex 83.6 95.1925 27.7545
    endloop
  endfacet
  facet normal 0 -0.587783 0.809018
    outer loop
      vertex 83.6 96.9301 26.9809
      vertex 95.59 96.5937 26.7365
      vertex 95.59 96.9301 26.9809
    endloop
  endfacet
  facet normal 0 -0.587783 0.809018
    outer loop
      vertex 95.59 96.5937 26.7365
      vertex 83.6 96.9301 26.9809
      vertex 83.6 96.5937 26.7365
    endloop
  endfacet
  facet normal 0 -0.994522 0.104527
    outer loop
      vertex 83.6 97.1381 27.341
      vertex 95.59 97.1815 27.7545
      vertex 83.6 97.1815 27.7545
    endloop
  endfacet
  facet normal 0 -0.994522 0.104527
    outer loop
      vertex 95.59 97.1815 27.7545
      vertex 83.6 97.1381 27.341
      vertex 95.59 97.1381 27.341
    endloop
  endfacet
  facet normal 0 -0.406735 -0.913546
    outer loop
      vertex 83.6 96.3949 28.6281
      vertex 95.59 96.7748 28.459
      vertex 95.59 96.3949 28.6281
    endloop
  endfacet
  facet normal -0 -0.406735 -0.913546
    outer loop
      vertex 95.59 96.7748 28.459
      vertex 83.6 96.3949 28.6281
      vertex 83.6 96.7748 28.459
    endloop
  endfacet
  facet normal -0 0.207914 0.978147
    outer loop
      vertex 83.6 96.187 26.65
      vertex 95.59 95.7803 26.7365
      vertex 95.59 96.187 26.65
    endloop
  endfacet
  facet normal 0 0.207914 0.978147
    outer loop
      vertex 95.59 95.7803 26.7365
      vertex 83.6 96.187 26.65
      vertex 83.6 95.7803 26.7365
    endloop
  endfacet
  facet normal 0 -0.866028 0.499995
    outer loop
      vertex 83.6 96.9301 26.9809
      vertex 95.59 97.1381 27.341
      vertex 83.6 97.1381 27.341
    endloop
  endfacet
  facet normal 0 -0.866028 0.499995
    outer loop
      vertex 95.59 97.1381 27.341
      vertex 83.6 96.9301 26.9809
      vertex 95.59 96.9301 26.9809
    endloop
  endfacet
  facet normal 0 0.866028 0.499995
    outer loop
      vertex 95.59 95.4439 26.9809
      vertex 83.6 95.2359 27.341
      vertex 95.59 95.2359 27.341
    endloop
  endfacet
  facet normal 0 0.866028 0.499995
    outer loop
      vertex 83.6 95.2359 27.341
      vertex 95.59 95.4439 26.9809
      vertex 83.6 95.4439 26.9809
    endloop
  endfacet
  facet normal 0 0.951053 -0.309029
    outer loop
      vertex 95.59 95.1925 27.7545
      vertex 83.6 95.321 28.15
      vertex 95.59 95.321 28.15
    endloop
  endfacet
  facet normal 0 0.951053 -0.309029
    outer loop
      vertex 83.6 95.321 28.15
      vertex 95.59 95.1925 27.7545
      vertex 83.6 95.1925 27.7545
    endloop
  endfacet
  facet normal 0 0.406735 -0.913546
    outer loop
      vertex 83.6 95.5992 28.459
      vertex 95.59 95.9791 28.6281
      vertex 95.59 95.5992 28.459
    endloop
  endfacet
  facet normal 0 0.406735 -0.913546
    outer loop
      vertex 95.59 95.9791 28.6281
      vertex 83.6 95.5992 28.459
      vertex 83.6 95.9791 28.6281
    endloop
  endfacet
  facet normal -0 0.587783 0.809018
    outer loop
      vertex 83.6 95.7803 26.7365
      vertex 95.59 95.4439 26.9809
      vertex 95.59 95.7803 26.7365
    endloop
  endfacet
  facet normal 0 0.587783 0.809018
    outer loop
      vertex 95.59 95.4439 26.9809
      vertex 83.6 95.7803 26.7365
      vertex 83.6 95.4439 26.9809
    endloop
  endfacet
  facet normal 0 0.74315 -0.669125
    outer loop
      vertex 95.59 95.321 28.15
      vertex 83.6 95.5992 28.459
      vertex 95.59 95.5992 28.459
    endloop
  endfacet
  facet normal 0 0.74315 -0.669125
    outer loop
      vertex 83.6 95.5992 28.459
      vertex 95.59 95.321 28.15
      vertex 83.6 95.321 28.15
    endloop
  endfacet
  facet normal 1 0 0
    outer loop
      vertex 95.59 100.437 38
      vertex 95.59 97.1815 27.7545
      vertex 95.59 100.437 17.3
    endloop
  endfacet
  facet normal 1 0 0
    outer loop
      vertex 95.59 100.437 38
      vertex 95.59 97.053 28.15
      vertex 95.59 97.1815 27.7545
    endloop
  endfacet
  facet normal 1 0 0
    outer loop
      vertex 95.59 100.437 38
      vertex 95.59 96.7748 28.459
      vertex 95.59 97.053 28.15
    endloop
  endfacet
  facet normal 1 0 0
    outer loop
      vertex 95.59 100.437 38
      vertex 95.59 96.3949 28.6281
      vertex 95.59 96.7748 28.459
    endloop
  endfacet
  facet normal 1 0 0
    outer loop
      vertex 95.59 100.437 38
      vertex 95.59 95.9791 28.6281
      vertex 95.59 96.3949 28.6281
    endloop
  endfacet
  facet normal 1 -0 0
    outer loop
      vertex 95.59 91.437 37.3951
      vertex 95.59 95.9791 28.6281
      vertex 95.59 100.437 38
    endloop
  endfacet
  facet normal 1 0 0
    outer loop
      vertex 95.59 95.9791 28.6281
      vertex 95.59 91.437 37.3951
      vertex 95.59 95.5992 28.459
    endloop
  endfacet
  facet normal 1 0 0
    outer loop
      vertex 95.59 95.5992 28.459
      vertex 95.59 91.437 37.3951
      vertex 95.59 95.321 28.15
    endloop
  endfacet
  facet normal 1 0 0
    outer loop
      vertex 95.59 91.437 37.3951
      vertex 95.59 100.437 38
      vertex 95.59 91.437 38
    endloop
  endfacet
  facet normal 1 -0 0
    outer loop
      vertex 95.59 97.1381 27.341
      vertex 95.59 100.437 17.3
      vertex 95.59 97.1815 27.7545
    endloop
  endfacet
  facet normal 1 -0 0
    outer loop
      vertex 95.59 96.9301 26.9809
      vertex 95.59 100.437 17.3
      vertex 95.59 97.1381 27.341
    endloop
  endfacet
  facet normal 1 -0 0
    outer loop
      vertex 95.59 96.5937 26.7365
      vertex 95.59 100.437 17.3
      vertex 95.59 96.9301 26.9809
    endloop
  endfacet
  facet normal 1 -0 0
    outer loop
      vertex 95.59 96.187 26.65
      vertex 95.59 100.437 17.3
      vertex 95.59 96.5937 26.7365
    endloop
  endfacet
  facet normal 1 0 0
    outer loop
      vertex 95.59 95.7803 26.7365
      vertex 95.59 100.437 17.3
      vertex 95.59 96.187 26.65
    endloop
  endfacet
  facet normal 1 0 0
    outer loop
      vertex 95.59 84.5952 17.3
      vertex 95.59 95.7803 26.7365
      vertex 95.59 95.4439 26.9809
    endloop
  endfacet
  facet normal 1 0 0
    outer loop
      vertex 95.59 84.5952 17.3
      vertex 95.59 95.4439 26.9809
      vertex 95.59 95.2359 27.341
    endloop
  endfacet
  facet normal 1 -0 0
    outer loop
      vertex 95.59 84.5952 37.3951
      vertex 95.59 95.321 28.15
      vertex 95.59 91.437 37.3951
    endloop
  endfacet
  facet normal 1 0 0
    outer loop
      vertex 95.59 95.321 28.15
      vertex 95.59 84.5952 37.3951
      vertex 95.59 95.1925 27.7545
    endloop
  endfacet
  facet normal 1 0 0
    outer loop
      vertex 95.59 84.5952 17.3
      vertex 95.59 95.1925 27.7545
      vertex 95.59 84.5952 37.3951
    endloop
  endfacet
  facet normal 1 0 0
    outer loop
      vertex 95.59 95.1925 27.7545
      vertex 95.59 84.5952 17.3
      vertex 95.59 95.2359 27.341
    endloop
  endfacet
  facet normal 1 0 0
    outer loop
      vertex 95.59 95.7803 26.7365
      vertex 95.59 84.5952 17.3
      vertex 95.59 100.437 17.3
    endloop
  endfacet
  facet normal 0 0 -1
    outer loop
      vertex 98.69 53.337 38
      vertex 98.6 55.337 38
      vertex 98.69 55.337 38
    endloop
  endfacet
  facet normal 0 0 -1
    outer loop
      vertex 96.0932 91.437 38
      vertex 98.6 55.337 38
      vertex 96.0932 53.337 38
    endloop
  endfacet
  facet normal 0 0 -1
    outer loop
      vertex 96.0932 53.337 38
      vertex 98.6 55.337 38
      vertex 98.69 53.337 38
    endloop
  endfacet
  facet normal 0 0 -1
    outer loop
      vertex 98.6 55.337 38
      vertex 96.0932 91.437 38
      vertex 98.6 91.437 38
    endloop
  endfacet
  facet normal 0 0 -1
    outer loop
      vertex 98.6 91.437 38
      vertex 96.0932 91.437 38
      vertex 98.6 100.437 38
    endloop
  endfacet
  facet normal 0 0 -1
    outer loop
      vertex 95.59 100.437 38
      vertex 96.0932 91.437 38
      vertex 95.59 91.437 38
    endloop
  endfacet
  facet normal 0 0 -1
    outer loop
      vertex 96.0932 91.437 38
      vertex 95.59 100.437 38
      vertex 98.6 100.437 38
    endloop
  endfacet
  facet normal -1 0 0
    outer loop
      vertex 98.69 53.337 17.3
      vertex 98.69 55.337 38
      vertex 98.69 55.337 17.3
    endloop
  endfacet
  facet normal -1 -0 0
    outer loop
      vertex 98.69 55.337 38
      vertex 98.69 53.337 17.3
      vertex 98.69 53.337 38
    endloop
  endfacet
  facet normal 0 -1 0
    outer loop
      vertex 95.59 100.437 17.3
      vertex 98.6 100.437 38
      vertex 95.59 100.437 38
    endloop
  endfacet
  facet normal 0 -1 -0
    outer loop
      vertex 98.6 100.437 38
      vertex 95.59 100.437 17.3
      vertex 98.6 100.437 17.3
    endloop
  endfacet
  facet normal 0 0 1
    outer loop
      vertex 98.6 91.437 17.3
      vertex 95.6 81.437 17.3
      vertex 98.6 55.337 17.3
    endloop
  endfacet
  facet normal -0 0 1
    outer loop
      vertex 95.59 100.437 17.3
      vertex 98.6 91.437 17.3
      vertex 98.6 100.437 17.3
    endloop
  endfacet
  facet normal 0 0 1
    outer loop
      vertex 98.6 91.437 17.3
      vertex 95.59 100.437 17.3
      vertex 95.59 84.5952 17.3
    endloop
  endfacet
  facet normal 0 0 1
    outer loop
      vertex 98.6 91.437 17.3
      vertex 95.59 84.5952 17.3
      vertex 95.6 81.437 17.3
    endloop
  endfacet
  facet normal 0 0 1
    outer loop
      vertex 95.6 81.437 17.3
      vertex 95.59 84.5952 17.3
      vertex 91.2432 81.437 17.3
    endloop
  endfacet
  facet normal -0 0 1
    outer loop
      vertex 98.6 55.337 17.3
      vertex 98.69 53.337 17.3
      vertex 98.69 55.337 17.3
    endloop
  endfacet
  facet normal 0 0 1
    outer loop
      vertex 95.6 53.337 17.3
      vertex 98.6 55.337 17.3
      vertex 95.6 81.437 17.3
    endloop
  endfacet
  facet normal 0 0 1
    outer loop
      vertex 98.6 55.337 17.3
      vertex 95.6 53.337 17.3
      vertex 98.69 53.337 17.3
    endloop
  endfacet
  facet normal 0 1 0
    outer loop
      vertex 98.69 53.337 38
      vertex 96.0865 53.337 37.4465
      vertex 96.0932 53.337 38
    endloop
  endfacet
  facet normal 0 1 -0
    outer loop
      vertex 98.69 53.337 17.3
      vertex 96.0865 53.337 37.4465
      vertex 98.69 53.337 38
    endloop
  endfacet
  facet normal 0 1 0
    outer loop
      vertex 95.6 53.337 17.3
      vertex 96.0865 53.337 37.4465
      vertex 98.69 53.337 17.3
    endloop
  endfacet
  facet normal 0 1 0
    outer loop
      vertex 96.0865 53.337 37.4465
      vertex 95.6 53.337 17.3
      vertex 95.6 53.337 37.3962
    endloop
  endfacet
  facet normal 0.587786 -0.809016 0
    outer loop
      vertex 95.59 84.5952 17.3
      vertex 91.2432 81.437 36.9452
      vertex 91.2432 81.437 17.3
    endloop
  endfacet
  facet normal 0.587786 -0.809016 0
    outer loop
      vertex 91.2432 81.437 36.9452
      vertex 95.59 84.5952 17.3
      vertex 95.59 84.5952 37.3951
    endloop
  endfacet
endsolid OpenSCAD_Model
